<svg width="336" height="112" viewBox="0 0 336 112" fill="none" xmlns="http://www.w3.org/2000/svg">
<g clip-path="url(#clip0_8_924)">
<path d="M308.457 0.000364H26.8268C25.8002 0.000364 24.7859 0.000364 23.7621 0.005964C22.905 0.011564 22.0548 0.027832 21.1895 0.041524C19.3096 0.063649 17.4342 0.229058 15.5795 0.536312C13.7275 0.850255 11.9334 1.44213 10.258 2.29191C8.5847 3.14888 7.05574 4.26243 5.7266 5.59216C4.39049 6.91815 3.27674 8.45081 2.42817 10.1312C1.57726 11.8083 0.987242 13.6054 0.678483 15.4605C0.366789 17.3133 0.199063 19.1874 0.176812 21.0661C0.150833 21.9246 0.148089 22.7859 0.134399 23.6445V88.3644C0.148089 89.2338 0.150833 90.0761 0.176812 90.9458C0.19907 92.8244 0.366796 94.6984 0.678483 96.5511C0.986389 98.4073 1.57645 100.205 2.42817 101.883C3.27635 103.558 4.39026 105.085 5.7266 106.403C7.0507 107.739 8.58065 108.853 10.258 109.704C11.9334 110.556 13.7272 111.151 15.5795 111.47C17.4345 111.775 19.3098 111.94 21.1895 111.965C22.0548 111.984 22.905 111.995 23.7621 111.995C24.7859 112 25.8002 112 26.8268 112H308.457C309.463 112 310.486 112 311.492 111.995C312.345 111.995 313.22 111.984 314.073 111.965C315.949 111.941 317.82 111.776 319.672 111.47C321.53 111.149 323.33 110.553 325.014 109.704C326.689 108.853 328.218 107.738 329.541 106.403C330.874 105.079 331.99 103.554 332.849 101.883C333.694 100.204 334.279 98.4062 334.582 96.5511C334.894 94.6981 335.068 92.8245 335.102 90.9458C335.113 90.0761 335.113 89.2338 335.113 88.3644C335.134 87.3472 335.134 86.3356 335.134 85.3018V26.7015C335.134 25.6761 335.134 24.659 335.113 23.6445C335.113 22.7859 335.113 21.9246 335.102 21.066C335.068 19.1871 334.894 17.3134 334.582 15.4604C334.278 13.6064 333.693 11.8094 332.849 10.1311C331.121 6.76291 328.381 4.02123 325.014 2.29166C323.33 1.44395 321.53 0.852237 319.672 0.53606C317.821 0.227452 315.949 0.0619857 314.073 0.041132C313.22 0.027468 312.345 0.01106 311.492 0.0056C310.486 0 309.463 0.000364 308.457 0.000364Z" fill="white" fill-opacity="0.45" style="fill:white;fill-opacity:0.45;"/>
<path d="M23.7763 109.55C22.9234 109.55 22.091 109.539 21.2448 109.52C19.4917 109.497 17.7427 109.345 16.0121 109.063C14.3984 108.785 12.8352 108.268 11.374 107.529C9.92625 106.796 8.60576 105.835 7.46313 104.683C6.30397 103.544 5.33892 102.223 4.60621 100.773C3.86543 99.3126 3.35277 97.7477 3.08608 96.1324C2.79808 94.3967 2.64226 92.6417 2.61996 90.8824C2.60222 90.2919 2.57898 88.3257 2.57898 88.3257V23.6442C2.57898 23.6442 2.60373 21.7082 2.6201 21.1394C2.64145 19.3829 2.79637 17.6306 3.08351 15.8976C3.35069 14.2779 3.86375 12.7085 4.60492 11.2438C5.33494 9.79424 6.29463 8.47241 7.44681 7.3295C8.5977 6.17574 9.92242 5.20969 11.3727 4.46659C12.8305 3.72986 14.3907 3.21645 16.0011 2.94356C17.7374 2.65954 19.4925 2.50599 21.2516 2.48419L23.7777 2.45H311.479L314.035 2.48556C315.778 2.50628 317.517 2.65846 319.237 2.94081C320.864 3.21713 322.441 3.73412 323.915 4.47479C326.821 5.97236 329.185 8.34166 330.676 11.2506C331.405 12.7052 331.91 14.2618 332.174 15.8676C332.465 17.6148 332.627 19.3809 332.661 21.1518C332.669 21.9447 332.669 22.7965 332.669 23.6442C332.691 24.6942 332.691 25.6936 332.691 26.7012V85.3014C332.691 86.3187 332.691 87.3113 332.669 88.312C332.669 89.2226 332.669 90.0567 332.658 90.9152C332.625 92.6545 332.465 94.389 332.18 96.105C331.918 97.7319 331.408 99.309 330.668 100.781C329.93 102.216 328.97 103.525 327.825 104.661C326.681 105.82 325.358 106.786 323.907 107.524C322.437 108.269 320.862 108.788 319.237 109.063C317.507 109.346 315.758 109.499 314.005 109.52C313.185 109.539 312.326 109.55 311.492 109.55L308.458 109.556L23.7763 109.55Z" fill="black" style="fill:black;fill-opacity:1;"/>
<path d="M69.4751 56.8419C69.5052 54.5048 70.1258 52.2134 71.2793 50.1807C72.4328 48.148 74.0816 46.4402 76.0723 45.2161C74.8076 43.4097 73.1393 41.923 71.1997 40.8743C69.2601 39.8256 67.1028 39.2436 64.899 39.1746C60.198 38.6811 55.6405 41.9882 53.2449 41.9882C50.803 41.9882 47.1147 39.2236 43.1429 39.3054C40.5739 39.3884 38.0702 40.1356 35.8757 41.4741C33.6812 42.8127 31.8709 44.697 30.621 46.9434C25.2067 56.319 29.2453 70.0979 34.4317 77.6764C37.0265 81.3874 40.0592 85.5327 44.0273 85.3857C47.9104 85.2246 49.3607 82.9091 54.0479 82.9091C58.6916 82.9091 60.0522 85.3857 64.1009 85.2922C68.2676 85.2245 70.8928 81.5647 73.3967 77.8186C75.2611 75.1744 76.6957 72.252 77.6475 69.1596C75.2267 68.1355 73.1609 66.4214 71.7076 64.231C70.2543 62.0406 69.4779 59.4707 69.4751 56.8419Z" fill="white" style="fill:white;fill-opacity:1;"/>
<path d="M61.8278 34.1905C64.0996 31.4627 65.2189 27.9566 64.9479 24.4167C61.4769 24.7814 58.2708 26.4405 55.9682 29.0637C54.8424 30.3451 53.9802 31.8359 53.4308 33.4509C52.8814 35.0659 52.6557 36.7733 52.7664 38.4755C54.5025 38.4934 56.22 38.1171 57.7896 37.3748C59.3592 36.6326 60.7399 35.5438 61.8278 34.1905Z" fill="white" style="fill:white;fill-opacity:1;"/>
<path d="M118.56 75.991H105.309L102.127 85.3891H96.5139L109.065 50.6187H114.897L127.448 85.3891H121.739L118.56 75.991ZM106.681 71.6543H117.185L112.007 56.4019H111.862L106.681 71.6543Z" fill="white" style="fill:white;fill-opacity:1;"/>
<path d="M154.554 72.7152C154.554 80.593 150.339 85.6543 143.977 85.6543C142.366 85.7386 140.763 85.3673 139.352 84.5829C137.942 83.7985 136.781 82.6328 136.002 81.2191H135.882V93.7754H130.679V60.0387H135.715V64.2551H135.811C136.625 62.8482 137.806 61.6884 139.227 60.8993C140.648 60.1101 142.257 59.721 143.881 59.7734C150.314 59.7734 154.554 64.8594 154.554 72.7152ZM149.207 72.7152C149.207 67.5828 146.555 64.2086 142.509 64.2086C138.534 64.2086 135.86 67.6539 135.86 72.7152C135.86 77.8231 138.534 81.2438 142.509 81.2438C146.555 81.2438 149.207 77.8941 149.207 72.7152Z" fill="white" style="fill:white;fill-opacity:1;"/>
<path d="M182.451 72.7152C182.451 80.593 178.236 85.6543 171.874 85.6543C170.262 85.7386 168.66 85.3673 167.249 84.5829C165.839 83.7985 164.678 82.6328 163.899 81.2191H163.779V93.7754H158.576V60.0387H163.612V64.2551H163.708C164.522 62.8482 165.703 61.6884 167.124 60.8993C168.545 60.1101 170.153 59.721 171.778 59.7734C178.211 59.7734 182.451 64.8594 182.451 72.7152ZM177.104 72.7152C177.104 67.5828 174.452 64.2086 170.406 64.2086C166.431 64.2086 163.757 67.6539 163.757 72.7152C163.757 77.8231 166.431 81.2438 170.406 81.2438C174.452 81.2438 177.104 77.8941 177.104 72.7152Z" fill="white" style="fill:white;fill-opacity:1;"/>
<path d="M200.888 75.7012C201.274 79.1492 204.623 81.4132 209.199 81.4132C213.585 81.4132 216.739 79.1491 216.739 76.0401C216.739 73.3413 214.837 71.7253 210.331 70.6178L205.826 69.5323C199.442 67.9901 196.479 65.0041 196.479 60.1588C196.479 54.1596 201.706 50.0389 209.128 50.0389C216.474 50.0389 221.51 54.1596 221.68 60.1588H216.428C216.113 56.6889 213.245 54.5944 209.054 54.5944C204.863 54.5944 201.995 56.7135 201.995 59.7979C201.995 62.2561 203.827 63.7026 208.308 64.8099L212.138 65.7505C219.271 67.4377 222.234 70.3033 222.234 75.3892C222.234 81.8943 217.054 85.9685 208.814 85.9685C201.104 85.9685 195.899 81.99 195.563 75.7009L200.888 75.7012Z" fill="white" style="fill:white;fill-opacity:1;"/>
<path d="M233.463 54.0394V60.0387H238.283V64.1594H233.463V78.1348C233.463 80.3058 234.428 81.3176 236.547 81.3176C237.119 81.3076 237.69 81.2674 238.258 81.1972V85.2933C237.306 85.4713 236.337 85.5519 235.368 85.5339C230.237 85.5339 228.236 83.6061 228.236 78.6897V64.1594H224.55V60.0387H228.236V54.0394H233.463Z" fill="white" style="fill:white;fill-opacity:1;"/>
<path d="M241.074 72.7152C241.074 64.7391 245.771 59.727 253.095 59.727C260.443 59.727 265.118 64.739 265.118 72.7152C265.118 80.7133 260.468 85.7035 253.095 85.7035C245.724 85.7035 241.074 80.7133 241.074 72.7152ZM259.817 72.7152C259.817 67.2438 257.31 64.0145 253.095 64.0145C248.879 64.0145 246.375 67.2684 246.375 72.7152C246.375 78.2086 248.879 81.4133 253.095 81.4133C257.31 81.4133 259.817 78.2086 259.817 72.7152Z" fill="white" style="fill:white;fill-opacity:1;"/>
<path d="M269.408 60.0387H274.37V64.3535H274.49C274.826 63.0059 275.615 61.8149 276.725 60.9809C277.836 60.1468 279.199 59.7204 280.587 59.7734C281.186 59.7713 281.784 59.8364 282.369 59.9675V64.8347C281.612 64.6034 280.823 64.4972 280.032 64.5203C279.276 64.4896 278.522 64.6229 277.823 64.911C277.123 65.1991 276.495 65.6351 275.98 66.1892C275.465 66.7433 275.076 67.4023 274.839 68.121C274.603 68.8397 274.525 69.601 274.61 70.3527V85.389H269.408L269.408 60.0387Z" fill="white" style="fill:white;fill-opacity:1;"/>
<path d="M306.356 77.9433C305.657 82.5453 301.176 85.7035 295.443 85.7035C288.069 85.7035 283.493 80.7625 283.493 72.8355C283.493 64.884 288.094 59.7269 295.224 59.7269C302.236 59.7269 306.646 64.5449 306.646 72.2312V74.014H288.745V74.3285C288.662 75.2615 288.779 76.2013 289.087 77.0857C289.396 77.97 289.889 78.7786 290.534 79.4577C291.179 80.1369 291.961 80.671 292.828 81.0247C293.695 81.3783 294.627 81.5434 295.563 81.5089C296.792 81.6242 298.026 81.3394 299.081 80.6969C300.135 80.0545 300.955 79.0887 301.416 77.9433L306.356 77.9433ZM288.769 70.3773H301.441C301.488 69.5385 301.36 68.699 301.067 67.9116C300.774 67.1242 300.322 66.4059 299.738 65.8018C299.154 65.1976 298.452 64.7207 297.675 64.4009C296.898 64.0811 296.064 63.9253 295.224 63.9433C294.377 63.9383 293.537 64.1011 292.753 64.4224C291.969 64.7436 291.256 65.217 290.656 65.8152C290.056 66.4134 289.581 67.1245 289.257 67.9075C288.933 68.6905 288.767 69.5299 288.769 70.3773Z" fill="white" style="fill:white;fill-opacity:1;"/>
<path d="M106.029 24.4468C107.12 24.3685 108.214 24.5333 109.233 24.9293C110.253 25.3253 111.171 25.9427 111.923 26.7368C112.675 27.531 113.242 28.4821 113.581 29.5217C113.921 30.5613 114.026 31.6633 113.889 32.7483C113.889 38.0858 111.004 41.1539 106.029 41.1539H99.9951V24.4468H106.029ZM102.59 38.7912H105.739C106.518 38.8378 107.298 38.71 108.022 38.4171C108.746 38.1241 109.395 37.6735 109.923 37.0979C110.451 36.5223 110.843 35.8363 111.073 35.0898C111.302 34.3432 111.362 33.555 111.248 32.7824C111.353 32.0129 111.287 31.2295 111.055 30.4884C110.822 29.7474 110.428 29.067 109.902 28.496C109.375 27.925 108.729 27.4775 108.009 27.1856C107.29 26.8938 106.514 26.7647 105.739 26.8078H102.59V38.7912Z" fill="white" style="fill:white;fill-opacity:1;"/>
<path d="M116.82 34.8442C116.74 34.0156 116.835 33.1796 117.098 32.3898C117.36 31.6 117.785 30.8738 118.345 30.2579C118.905 29.6419 119.587 29.1498 120.348 28.813C121.109 28.4763 121.932 28.3023 122.764 28.3023C123.597 28.3023 124.42 28.4763 125.181 28.813C125.942 29.1498 126.624 29.6419 127.184 30.2579C127.743 30.8738 128.168 31.6 128.431 32.3898C128.694 33.1796 128.788 34.0156 128.709 34.8442C128.79 35.6736 128.696 36.5107 128.434 37.3018C128.172 38.0929 127.748 38.8203 127.188 39.4375C126.628 40.0547 125.945 40.5478 125.183 40.8853C124.422 41.2228 123.598 41.3972 122.764 41.3972C121.931 41.3972 121.107 41.2228 120.345 40.8853C119.584 40.5478 118.901 40.0547 118.341 39.4375C117.781 38.8203 117.356 38.0929 117.094 37.3018C116.832 36.5107 116.739 35.6736 116.82 34.8442ZM126.15 34.8442C126.15 32.1112 124.923 30.5129 122.768 30.5129C120.606 30.5129 119.389 32.1112 119.389 34.8442C119.389 37.5991 120.606 39.185 122.768 39.185C124.923 39.185 126.15 37.5881 126.15 34.8442Z" fill="white" style="fill:white;fill-opacity:1;"/>
<path d="M144.514 41.1537H141.933L139.328 31.8678H139.131L136.536 41.1537H133.98L130.505 28.5455H133.029L135.287 38.1663H135.473L138.064 28.5455H140.451L143.043 38.1663H143.24L145.487 28.5455H147.975L144.514 41.1537Z" fill="white" style="fill:white;fill-opacity:1;"/>
<path d="M150.898 28.5455H153.292V30.5484H153.478C153.794 29.829 154.326 29.226 155 28.8233C155.674 28.4207 156.457 28.2385 157.24 28.3021C157.854 28.256 158.469 28.3485 159.042 28.5728C159.615 28.797 160.13 29.1473 160.549 29.5977C160.968 30.048 161.28 30.5869 161.463 31.1744C161.645 31.7619 161.694 32.383 161.603 32.9916V41.1536H159.116V33.6164C159.116 31.5902 158.235 30.5826 156.395 30.5826C155.979 30.5632 155.563 30.6341 155.177 30.7904C154.79 30.9467 154.442 31.1848 154.156 31.4883C153.87 31.7918 153.653 32.1535 153.52 32.5486C153.387 32.9438 153.341 33.3631 153.385 33.7777V41.1537H150.898L150.898 28.5455Z" fill="white" style="fill:white;fill-opacity:1;"/>
<path d="M165.568 23.6236H168.056V41.1537H165.568V23.6236Z" fill="white" style="fill:white;fill-opacity:1;"/>
<path d="M171.514 34.8442C171.435 34.0155 171.529 33.1795 171.792 32.3897C172.055 31.5998 172.48 30.8737 173.04 30.2577C173.599 29.6417 174.282 29.1496 175.043 28.8128C175.804 28.476 176.627 28.3021 177.459 28.3021C178.292 28.3021 179.115 28.476 179.876 28.8128C180.637 29.1496 181.319 29.6417 181.879 30.2577C182.439 30.8737 182.864 31.5998 183.126 32.3897C183.389 33.1795 183.484 34.0155 183.405 34.8442C183.485 35.6736 183.392 36.5108 183.13 37.3018C182.868 38.0929 182.443 38.8204 181.883 39.4375C181.323 40.0547 180.64 40.5478 179.878 40.8853C179.117 41.2228 178.293 41.3971 177.459 41.3971C176.626 41.3971 175.802 41.2228 175.04 40.8853C174.278 40.5478 173.596 40.0547 173.036 39.4375C172.476 38.8204 172.051 38.0929 171.789 37.3018C171.527 36.5108 171.433 35.6736 171.514 34.8442ZM180.845 34.8442C180.845 32.1112 179.617 30.5129 177.463 30.5129C175.3 30.5129 174.084 32.1112 174.084 34.8442C174.084 37.5991 175.3 39.185 177.463 39.185C179.617 39.185 180.845 37.5881 180.845 34.8442Z" fill="white" style="fill:white;fill-opacity:1;"/>
<path d="M186.024 37.5881C186.024 35.3186 187.713 34.0102 190.712 33.8242L194.127 33.6274V32.5391C194.127 31.2074 193.247 30.4555 191.546 30.4555C190.157 30.4555 189.195 30.9655 188.919 31.8569H186.51C186.765 29.6912 188.801 28.3022 191.661 28.3022C194.821 28.3022 196.604 29.8758 196.604 32.5391V41.1537H194.209V39.3819H194.012C193.613 40.0174 193.052 40.5356 192.386 40.8834C191.721 41.2312 190.976 41.3961 190.226 41.3615C189.696 41.4165 189.162 41.36 188.656 41.1957C188.15 41.0313 187.684 40.7627 187.288 40.4072C186.892 40.0517 186.575 39.6172 186.357 39.1316C186.139 38.646 186.026 38.1202 186.024 37.5881ZM194.127 36.5107V35.4567L191.049 35.6535C189.313 35.7697 188.525 36.3603 188.525 37.4719C188.525 38.6066 189.509 39.267 190.863 39.267C191.259 39.3071 191.66 39.2671 192.041 39.1492C192.421 39.0314 192.775 38.8381 193.079 38.581C193.384 38.3238 193.633 38.008 193.813 37.6524C193.993 37.2967 194.1 36.9085 194.127 36.5107Z" fill="white" style="fill:white;fill-opacity:1;"/>
<path d="M199.874 34.8441C199.874 30.8602 201.921 28.3363 205.106 28.3363C205.894 28.3 206.676 28.4888 207.361 28.8805C208.045 29.2722 208.604 29.8507 208.972 30.5483H209.158V23.6236H211.646V41.1537H209.262V39.1617H209.065C208.669 39.8546 208.09 40.4259 207.392 40.8137C206.695 41.2014 205.904 41.3909 205.106 41.3615C201.899 41.3616 199.874 38.8377 199.874 34.8441ZM202.444 34.8441C202.444 37.5184 203.704 39.1276 205.812 39.1276C207.909 39.1276 209.205 37.4952 209.205 34.8551C209.205 32.2274 207.895 30.5717 205.812 30.5717C203.718 30.5717 202.444 32.1918 202.444 34.8441Z" fill="white" style="fill:white;fill-opacity:1;"/>
<path d="M221.939 34.8442C221.86 34.0156 221.954 33.1796 222.217 32.3898C222.48 31.6 222.905 30.8738 223.464 30.2579C224.024 29.6419 224.706 29.1498 225.467 28.813C226.228 28.4763 227.051 28.3023 227.884 28.3023C228.716 28.3023 229.539 28.4763 230.3 28.813C231.061 29.1498 231.743 29.6419 232.303 30.2579C232.863 30.8738 233.288 31.6 233.55 32.3898C233.813 33.1796 233.908 34.0156 233.828 34.8442C233.909 35.6736 233.816 36.5107 233.554 37.3018C233.292 38.0929 232.867 38.8203 232.307 39.4375C231.747 40.0547 231.064 40.5478 230.303 40.8853C229.541 41.2228 228.717 41.3972 227.884 41.3972C227.05 41.3972 226.226 41.2228 225.465 40.8853C224.703 40.5478 224.02 40.0547 223.46 39.4375C222.9 38.8203 222.476 38.0929 222.214 37.3018C221.952 36.5107 221.858 35.6736 221.939 34.8442ZM231.27 34.8442C231.27 32.1112 230.042 30.5129 227.888 30.5129C225.725 30.5129 224.509 32.1112 224.509 34.8442C224.509 37.5991 225.725 39.185 227.888 39.185C230.042 39.185 231.27 37.5881 231.27 34.8442Z" fill="white" style="fill:white;fill-opacity:1;"/>
<path d="M237.167 28.5455H239.562V30.5484H239.748C240.063 29.829 240.595 29.226 241.269 28.8233C241.943 28.4207 242.727 28.2385 243.509 28.3021C244.123 28.256 244.739 28.3485 245.311 28.5728C245.884 28.797 246.399 29.1473 246.818 29.5977C247.237 30.048 247.55 30.5869 247.732 31.1744C247.915 31.7619 247.963 32.383 247.873 32.9916V41.1536H245.385V33.6164C245.385 31.5902 244.505 30.5826 242.665 30.5826C242.248 30.5632 241.832 30.6341 241.446 30.7904C241.059 30.9467 240.711 31.1848 240.425 31.4883C240.14 31.7918 239.923 32.1535 239.79 32.5486C239.657 32.9438 239.61 33.3631 239.655 33.7777V41.1537H237.167V28.5455Z" fill="white" style="fill:white;fill-opacity:1;"/>
<path d="M261.93 25.4064V28.6029H264.661V30.6988H261.93V37.182C261.93 38.5027 262.474 39.0811 263.713 39.0811C264.03 39.08 264.346 39.0609 264.661 39.0236V41.0963C264.215 41.1762 263.762 41.2187 263.308 41.2234C260.541 41.2234 259.44 40.25 259.44 37.8191V30.6987H257.438V28.6028H259.44V25.4064H261.93Z" fill="white" style="fill:white;fill-opacity:1;"/>
<path d="M268.06 23.6236H270.526V30.5717H270.722C271.053 29.8456 271.6 29.2391 272.288 28.8349C272.975 28.4308 273.771 28.2485 274.566 28.3131C275.176 28.2799 275.786 28.3817 276.353 28.6115C276.919 28.8412 277.428 29.1931 277.842 29.642C278.257 30.091 278.567 30.6259 278.752 31.2087C278.936 31.7915 278.989 32.4077 278.908 33.0135V41.1537H276.417V33.6273C276.417 31.6134 275.479 30.5935 273.722 30.5935C273.294 30.5584 272.864 30.6172 272.461 30.7658C272.059 30.9143 271.694 31.149 271.391 31.4535C271.089 31.758 270.857 32.1248 270.711 32.5284C270.565 32.932 270.51 33.3626 270.548 33.79V41.1536H268.06L268.06 23.6236Z" fill="white" style="fill:white;fill-opacity:1;"/>
<path d="M293.414 37.7494C293.076 38.9017 292.343 39.8985 291.345 40.5653C290.346 41.2321 289.145 41.5265 287.951 41.397C287.121 41.419 286.296 41.2599 285.533 40.9308C284.77 40.6017 284.088 40.1105 283.534 39.4914C282.98 38.8722 282.567 38.1398 282.324 37.3451C282.082 36.5504 282.015 35.7124 282.128 34.8893C282.018 34.0636 282.086 33.2238 282.328 32.4267C282.57 31.6296 282.98 30.8939 283.532 30.2692C284.083 29.6446 284.762 29.1458 285.522 28.8064C286.283 28.467 287.108 28.295 287.94 28.3021C291.448 28.3021 293.564 30.6989 293.564 34.6581V35.5264H284.663V35.6658C284.624 36.1285 284.682 36.5942 284.833 37.0331C284.985 37.472 285.226 37.8744 285.542 38.2145C285.858 38.5546 286.242 38.8248 286.669 39.008C287.095 39.1911 287.556 39.283 288.02 39.2778C288.615 39.3493 289.218 39.2421 289.752 38.9699C290.286 38.6978 290.727 38.2729 291.019 37.7493L293.414 37.7494ZM284.662 33.6861H291.03C291.061 33.263 291.004 32.8379 290.861 32.4383C290.718 32.0387 290.494 31.6734 290.201 31.3658C289.909 31.0582 289.556 30.8151 289.164 30.6522C288.772 30.4893 288.351 30.4102 287.927 30.4199C287.496 30.4145 287.069 30.4953 286.671 30.6576C286.272 30.8198 285.91 31.0602 285.606 31.3646C285.302 31.669 285.062 32.0312 284.9 32.4299C284.738 32.8287 284.657 33.2558 284.662 33.6861Z" fill="white" style="fill:white;fill-opacity:1;"/>
</g>
<defs>
<clipPath id="clip0_8_924">
<rect width="335" height="112" fill="white" style="fill:white;fill-opacity:1;" transform="translate(0.134399)"/>
</clipPath>
</defs>
</svg>
