<?xml version="1.0" encoding="UTF-8"?>
<svg width="143px" height="25px" viewBox="0 0 143 25" version="1.1" xmlns="http://www.w3.org/2000/svg" xmlns:xlink="http://www.w3.org/1999/xlink">
    <title>fivestars@2x</title>
    <g id="Page-1" stroke="none" stroke-width="1" fill="none" fill-rule="evenodd">
        <g id="fivestars" transform="translate(0.918367, 0.000000)" fill="#000000" fill-rule="nonzero">
            <polygon id="Star-1" points="41.5816329 18.1110501 33.8057561 24.455739 37.1326112 14.6183537 29 9.34126107 38.0834948 9.3412614 41.5816327 0 45.1009633 9.3412614 54.1632654 9.34126107 46.246885 14.6183537 49.3575093 24.455739"></polygon>
            <polygon id="Star-1" points="12.5816329 18.1110501 4.80575604 24.455739 8.13261115 14.6183537 0 9.34126107 9.08349475 9.3412614 12.5816327 0 16.1009633 9.3412614 25.1632654 9.34126107 17.246885 14.6183537 20.3575093 24.455739"></polygon>
            <polygon id="Star-1" points="70.6632655 18.1110501 62.8873887 24.455739 66.2142439 14.6183537 58.0816327 9.34126107 67.1651274 9.3412614 70.6632654 0 74.1825959 9.3412614 83.244898 9.34126107 75.3285177 14.6183537 78.439142 24.455739"></polygon>
            <polygon id="Star-1" points="99.6632657 18.1110501 91.8873887 24.455739 95.2142439 14.6183537 87.0816327 9.34126107 96.1651274 9.3412614 99.6632657 0 103.182596 9.3412614 112.244898 9.34126107 104.328518 14.6183537 107.439142 24.455739"></polygon>
            <polygon id="Star-1" points="128.663266 18.1110501 120.887389 24.455739 124.214244 14.6183537 116.081633 9.34126107 125.165128 9.3412614 128.663266 0 132.182596 9.3412614 141.244898 9.34126107 133.328518 14.6183537 136.439142 24.455739"></polygon>
        </g>
    </g>
</svg>