<svg width="132" height="125" viewBox="0 0 132 125" fill="none" xmlns="http://www.w3.org/2000/svg">
<path fill-rule="evenodd" clip-rule="evenodd" d="M99.979 25.7605C101.745 25.748 103.145 26.2109 104.178 27.1494C105.212 28.0878 105.732 29.545 105.739 31.521C105.739 48.3757 95.3434 62.3717 79.8114 66.558C79.2342 66.7136 78.4191 66.8914 77.3661 67.0915L77.1189 67.138C76.1215 67.3242 75.2089 67.8216 74.5119 68.5589C73.4354 69.6972 72.7228 70.5162 72.374 71.0155C67.2963 78.285 65.6627 83.2553 64.3354 88.186L64.1991 88.696C64.1539 88.866 64.109 89.0361 64.0641 89.2063L63.8627 89.9735L63.7339 90.4642C63.4323 91.6114 63.1213 92.7749 62.7624 93.9826C62.1711 95.9195 60.7863 98.721 58.6655 98.721C56.5446 98.721 55.9311 96.9582 55.9311 94.8377C55.9311 88.4668 58.9793 77.3391 65.0738 67.9699C69.9259 60.5106 77.6201 51.5762 87.2605 44.0389C88.0605 43.4134 87.8069 42.7706 86.9076 43.3327C76.999 49.5254 68.6507 56.7517 63.7492 63.8233L63.5547 64.1063L63.499 64.1887C62.7414 65.308 62.0381 66.4216 61.3858 67.5264C57.3073 61.6361 53.1626 57.4574 45.1563 51.5762C43.9154 50.6647 42.9865 50.8575 43.7669 51.5762C51.7049 58.887 59.1183 71.722 59.0603 71.8407C41.4016 71.7559 27.005 57.87 26.1038 40.4155C26.1 40.344 26.0797 40.078 26.077 39.6924L26.0772 39.49C26.0893 38.2553 26.2999 36.1089 27.5593 34.9068C29.2708 33.273 33.0337 33.484 33.372 33.505C48.2094 34.4217 60.4064 45.0946 63.6262 59.187C65.1764 40.4687 80.8601 25.7605 99.979 25.7605Z" fill="url(#paint0_linear_25_1349)" style=""/>
<defs>
<linearGradient id="paint0_linear_25_1349" x1="79.3069" y1="25.8819" x2="79.3069" y2="98.7238" gradientUnits="userSpaceOnUse">
<stop stop-color="#1C9E25" style="stop-color:#1C9E25;stop-color:color(display-p3 0.1098 0.6196 0.1451);stop-opacity:1;"/>
<stop offset="1" stop-color="#0C6F13" style="stop-color:#0C6F13;stop-color:color(display-p3 0.0471 0.4353 0.0745);stop-opacity:1;"/>
</linearGradient>
</defs>
</svg>
