<svg width="678" height="125" viewBox="0 0 678 125" fill="none" xmlns="http://www.w3.org/2000/svg">
<path fill-rule="evenodd" clip-rule="evenodd" d="M100.579 25.7604C102.345 25.7479 103.745 26.2108 104.778 27.1493C105.812 28.0877 106.332 29.5449 106.339 31.5209C106.339 48.3756 95.9434 62.3716 80.4114 66.5579C79.8342 66.7135 79.0191 66.8913 77.9661 67.0913L77.7188 67.1379C76.7215 67.3241 75.8088 67.8215 75.1118 68.5587C74.0354 69.6971 73.3228 70.516 72.974 71.0154C67.8962 78.2849 66.2627 83.2552 64.9354 88.1859L64.7991 88.6959C64.7539 88.8659 64.709 89.036 64.6641 89.2062L64.4627 89.9734L64.3339 90.4641C64.0323 91.6112 63.7213 92.7748 63.3624 93.9825C62.771 95.9193 61.3863 98.7209 59.2654 98.7209C57.1446 98.7209 56.5311 96.958 56.5311 94.8376C56.5311 88.4667 59.5793 77.339 65.6737 67.9698C70.5259 60.5104 78.2201 51.5761 87.8604 44.0388C88.6605 43.4132 88.4069 42.7705 87.5075 43.3325C77.599 49.5253 69.2506 56.7516 64.3492 63.8232L64.1547 64.1061L64.099 64.1886C63.3414 65.3079 62.6381 66.4215 61.9858 67.5263C57.9073 61.636 53.7625 57.4573 45.7562 51.5761C44.5153 50.6645 43.5865 50.8573 44.3669 51.5761C52.3049 58.8868 59.7183 71.7219 59.6603 71.8405C42.0016 71.7558 27.6049 57.8699 26.7037 40.4154C26.7 40.3438 26.6796 40.0779 26.6769 39.6923L26.6772 39.4899C26.6892 38.2551 26.8999 36.1088 28.1592 34.9067C29.8708 33.2729 33.6337 33.4838 33.9719 33.5049C48.8094 34.4216 61.0064 45.0944 64.2262 59.1869C65.7764 40.4686 81.4601 25.7604 100.579 25.7604Z" fill="url(#paint0_linear_25_1333)" style=""/>
<path d="M151.978 40.9562L143.659 47.4875C143.247 46.1812 142.777 45.1958 142.25 44.5312C141.746 43.8666 141.139 43.5343 140.428 43.5343C139.397 43.5343 138.629 43.9583 138.125 44.8062C137.644 45.6541 137.403 46.9718 137.403 48.7593V52.4718H143.797V60.9281H137.403V80.2812H144.141V88.6H120.628V80.2812H125.922V60.9281H121.075V52.4718H125.922V48.7593C125.922 44.8177 127.102 41.6896 129.462 39.375C131.846 37.0375 135.306 35.8687 139.844 35.8687C145.527 35.8687 149.572 37.5646 151.978 40.9562ZM173.031 80.2812V88.6H150.721V80.2812H156.359V45.0812H150.721V36.7968H167.909V80.2812H173.031ZM210.142 70.5187C210.142 74.1166 209.294 77.3594 207.598 80.2469C205.902 83.1344 203.611 85.3916 200.723 87.0187C197.836 88.6458 194.662 89.4594 191.201 89.4594C187.535 89.4594 184.258 88.6458 181.37 87.0187C178.483 85.3916 176.225 83.1344 174.598 80.2469C172.994 77.3594 172.192 74.1166 172.192 70.5187C172.192 66.9437 173.017 63.7239 174.667 60.8593C176.34 57.9948 178.632 55.7489 181.542 54.1218C184.452 52.4718 187.672 51.6468 191.201 51.6468C194.799 51.6468 198.042 52.4718 200.929 54.1218C203.817 55.7489 206.074 57.9948 207.701 60.8593C209.328 63.7239 210.142 66.9437 210.142 70.5187ZM191.133 80.4875C193.378 80.4875 195.132 79.6166 196.392 77.875C197.675 76.1104 198.317 73.5896 198.317 70.3125C198.317 67.2416 197.675 64.8469 196.392 63.1281C195.132 61.3864 193.356 60.5156 191.064 60.5156C188.749 60.5156 186.996 61.375 185.804 63.0937C184.613 64.7896 184.017 67.3562 184.017 70.7937C184.017 73.7041 184.659 76.0531 185.942 77.8406C187.248 79.6052 188.978 80.4875 191.133 80.4875ZM228.838 79.6625C230.809 79.6625 232.94 78.7916 235.232 77.05V60.9281H229.697V52.4718H246.713V80.2812H252.625V88.6H235.232V85.575C231.634 87.9583 228.139 89.15 224.747 89.15C221.241 89.15 218.514 88.176 216.566 86.2281C214.618 84.2802 213.644 81.5989 213.644 78.1844V60.9281H208.213V52.4718H225.057V75.2281C225.057 76.9239 225.32 78.0927 225.847 78.7344C226.397 79.3531 227.394 79.6625 228.838 79.6625ZM285.447 52.0593V62.8875C282.284 63.0937 279.763 63.5979 277.884 64.4C276.028 65.1791 274.584 66.5312 273.553 68.4562C272.545 70.3812 272.04 73.1312 272.04 76.7062V80.2812H279.225V88.6H253.89V80.2812H260.525V60.9281H254.234V52.4718H271.078V61.65C271.926 58.8771 273.496 56.5739 275.787 54.7406C278.079 52.9073 280.921 51.9906 284.312 51.9906C284.816 51.9906 285.195 52.0135 285.447 52.0593ZM304.811 42.1937C304.811 44.0271 304.181 45.551 302.92 46.7656C301.683 47.9573 300.204 48.5531 298.486 48.5531C296.744 48.5531 295.243 47.9343 293.983 46.6968C292.745 45.4364 292.126 43.9354 292.126 42.1937C292.126 40.475 292.745 38.9968 293.983 37.7593C295.243 36.4989 296.744 35.8687 298.486 35.8687C300.204 35.8687 301.683 36.4989 302.92 37.7593C304.181 38.9968 304.811 40.475 304.811 42.1937ZM309.451 80.2812V88.6H287.142V80.2812H292.642V60.9281H287.142V52.4718H304.089V80.2812H309.451ZM332.34 53.7437V52.4718H340.555V63.0594H332.34C331.629 60.5156 328.994 59.2437 324.433 59.2437C321.156 59.2437 319.518 60.1604 319.518 61.9937C319.518 62.7958 319.953 63.3916 320.824 63.7812C321.695 64.1708 322.967 64.4916 324.64 64.7437C329.338 65.3396 333.039 66.1989 335.743 67.3219C338.447 68.4219 340.338 69.7969 341.415 71.4469C342.492 73.0739 343.03 75.0562 343.03 77.3937C343.03 81.1979 341.724 84.1656 339.111 86.2969C336.522 88.4052 332.993 89.4594 328.524 89.4594C324.17 89.4594 321.214 88.5885 319.655 86.8469V88.6H311.268V76.1562H319.655C319.884 77.875 320.709 79.2271 322.13 80.2125C323.574 81.1979 325.35 81.6906 327.458 81.6906C329.521 81.6906 331.045 81.4614 332.03 81.0031C333.016 80.5219 333.508 79.6969 333.508 78.5281C333.508 77.726 333.302 77.1073 332.89 76.6719C332.477 76.2135 331.675 75.8125 330.483 75.4687C329.315 75.125 327.516 74.7354 325.086 74.3C319.678 73.4521 315.782 72.0885 313.399 70.2094C311.039 68.3073 309.858 65.7521 309.858 62.5437C309.858 59.2666 311.084 56.6885 313.536 54.8093C316.011 52.9302 319.266 51.9906 323.299 51.9906C326.553 51.9906 329.567 52.575 332.34 53.7437ZM369.785 51.6468C373.452 51.6468 376.202 52.7583 378.035 54.9812C379.891 57.2041 380.819 60.4354 380.819 64.675V80.2812H386.182V88.6H369.269V65.225C369.269 63.7354 368.983 62.6698 368.41 62.0281C367.86 61.3864 366.932 61.0656 365.626 61.0656C363.838 61.0656 361.821 61.7989 359.576 63.2656V80.2812H364.629V88.6H342.251V80.2812H348.094V45.0812H342.251V36.7968H359.576V55.4281C363.288 52.9073 366.691 51.6468 369.785 51.6468ZM427.131 56.9062V52.4718H444.559V60.9281H438.578V87.9125C438.578 93.5729 437.031 97.8927 433.937 100.872C430.843 103.851 426.077 105.341 419.637 105.341C412.51 105.341 407.193 104.034 403.687 101.422L409.29 93.825C412.246 95.6354 415.157 96.5406 418.021 96.5406C420.428 96.5406 422.284 96.1739 423.59 95.4406C424.919 94.7302 425.836 93.6187 426.34 92.1062C426.867 90.6166 427.131 88.6 427.131 86.0562V84.0969C423.327 87.4656 419.637 89.15 416.062 89.15C413.106 89.15 410.482 88.3708 408.19 86.8125C405.921 85.2312 404.168 83.0312 402.931 80.2125C401.693 77.3937 401.074 74.1625 401.074 70.5187C401.074 66.9437 401.728 63.7469 403.034 60.9281C404.363 58.1093 406.231 55.9208 408.637 54.3625C411.043 52.7812 413.724 51.9906 416.681 51.9906C420.966 51.9906 424.45 53.6291 427.131 56.9062ZM419.946 79.8C422.055 79.8 423.785 78.9979 425.137 77.3937C426.512 75.7666 427.2 73.5208 427.2 70.6562C427.2 67.7458 426.546 65.4541 425.24 63.7812C423.957 62.1083 422.192 61.2718 419.946 61.2718C417.769 61.2718 416.051 62.1312 414.79 63.85C413.53 65.5687 412.899 67.8146 412.899 70.5875C412.899 73.2458 413.53 75.4458 414.79 77.1875C416.051 78.9291 417.769 79.8 419.946 79.8ZM479.236 66.9094V80.2812H485.08V88.6H467.755V85.7812C464.478 88.0271 461.201 89.15 457.924 89.15C453.959 89.15 450.785 88.1302 448.402 86.0906C446.019 84.051 444.827 81.301 444.827 77.8406C444.827 74.1739 446.156 71.2406 448.814 69.0406C451.496 66.8177 455.048 65.7062 459.471 65.7062C461.006 65.7062 462.37 65.8781 463.561 66.2219C464.776 66.5427 466.174 67.1041 467.755 67.9062V65.0187C467.755 63.1854 467.182 61.7187 466.036 60.6187C464.891 59.5187 463.172 58.9687 460.88 58.9687C458.382 58.9687 456.171 59.9312 454.246 61.8562L444.964 60.1718C447.783 54.4885 453.604 51.6468 462.427 51.6468C468.477 51.6468 472.785 52.8958 475.352 55.3937C477.942 57.8687 479.236 61.7073 479.236 66.9094ZM460.502 81.9656C462.564 81.9656 464.982 80.7281 467.755 78.2531V75.0219C465.28 73.4177 463.011 72.6156 460.949 72.6156C459.299 72.6156 458.038 73.0052 457.168 73.7844C456.297 74.5635 455.861 75.675 455.861 77.1187C455.861 80.35 457.408 81.9656 460.502 81.9656ZM517.901 52.0593V62.8875C514.739 63.0937 512.218 63.5979 510.339 64.4C508.483 65.1791 507.039 66.5312 506.008 68.4562C504.999 70.3812 504.495 73.1312 504.495 76.7062V80.2812H511.679V88.6H486.345V80.2812H492.979V60.9281H486.689V52.4718H503.533V61.65C504.381 58.8771 505.95 56.5739 508.242 54.7406C510.534 52.9073 513.375 51.9906 516.767 51.9906C517.271 51.9906 517.649 52.0135 517.901 52.0593ZM560.856 80.2812V88.6H543.497V84.3031C540.197 87.5344 536.691 89.15 532.978 89.15C529.93 89.15 527.238 88.3364 524.9 86.7094C522.563 85.0594 520.729 82.8021 519.4 79.9375C518.094 77.0729 517.441 73.8875 517.441 70.3812C517.441 66.7604 518.094 63.5291 519.4 60.6875C520.729 57.8458 522.597 55.6343 525.003 54.0531C527.409 52.4489 530.091 51.6468 533.047 51.6468C537.287 51.6468 540.77 53.2854 543.497 56.5625V45.0812H537.791V36.7968H554.944V80.2812H560.856ZM536.381 80.075C538.627 80.075 540.38 79.1927 541.641 77.4281C542.924 75.6406 543.566 73.3375 543.566 70.5187C543.566 67.7 542.913 65.3969 541.606 63.6094C540.323 61.8219 538.558 60.9281 536.313 60.9281C534.136 60.9281 532.405 61.8219 531.122 63.6094C529.839 65.3969 529.197 67.6771 529.197 70.45C529.197 73.2458 529.839 75.5489 531.122 77.3594C532.405 79.1698 534.158 80.075 536.381 80.075ZM597.917 72.9594H570.967C571.242 75.7323 572.193 77.9323 573.82 79.5594C575.47 81.1635 577.59 81.9656 580.179 81.9656C583.044 81.9656 585.84 80.5448 588.567 77.7031L597.504 80.5906C595.533 83.5469 593.093 85.7698 590.182 87.2594C587.272 88.726 583.823 89.4594 579.835 89.4594C575.848 89.4594 572.319 88.7146 569.248 87.225C566.2 85.7125 563.828 83.5812 562.132 80.8312C560.459 78.0812 559.623 74.85 559.623 71.1375C559.623 67.4708 560.494 64.1479 562.235 61.1687C564 58.1896 566.372 55.8635 569.351 54.1906C572.353 52.4948 575.607 51.6468 579.114 51.6468C582.918 51.6468 586.229 52.5291 589.048 54.2937C591.867 56.0354 594.032 58.5218 595.545 61.7531C597.08 64.9614 597.871 68.6969 597.917 72.9594ZM578.564 59.3125C576.501 59.3125 574.84 59.9083 573.579 61.1C572.342 62.2916 571.563 64.1135 571.242 66.5656H586.298C585.977 64.4114 585.095 62.6698 583.651 61.3406C582.23 59.9885 580.534 59.3125 578.564 59.3125ZM638.369 65.5687V80.2812H643.8V88.6H626.819V66.4969C626.819 64.801 626.556 63.575 626.029 62.8187C625.524 62.0396 624.665 61.65 623.45 61.65C621.25 61.65 619.039 62.4406 616.816 64.0219V80.2812H622.454V88.6H599.869V80.2812H605.369V60.9281H599.869V52.4718H616.816V55.875C620.254 53.2854 623.783 51.9906 627.404 51.9906C631.002 51.9906 633.729 53.1364 635.585 55.4281C637.441 57.6968 638.369 61.0771 638.369 65.5687Z" fill="url(#paint1_linear_25_1333)" style=""/>
<defs>
<linearGradient id="paint0_linear_25_1333" x1="79.9069" y1="25.8818" x2="79.9069" y2="98.7237" gradientUnits="userSpaceOnUse">
<stop stop-color="#1C9E25" style="stop-color:#1C9E25;stop-color:color(display-p3 0.1098 0.6196 0.1451);stop-opacity:1;"/>
<stop offset="1" stop-color="#0C6F13" style="stop-color:#0C6F13;stop-color:color(display-p3 0.0471 0.4353 0.0745);stop-opacity:1;"/>
</linearGradient>
<linearGradient id="paint1_linear_25_1333" x1="470.74" y1="33.74" x2="470.74" y2="88.2792" gradientUnits="userSpaceOnUse">
<stop stop-color="#1C9E25" style="stop-color:#1C9E25;stop-color:color(display-p3 0.1098 0.6196 0.1451);stop-opacity:1;"/>
<stop offset="1" stop-color="#0C6F13" style="stop-color:#0C6F13;stop-color:color(display-p3 0.0471 0.4353 0.0745);stop-opacity:1;"/>
</linearGradient>
</defs>
</svg>
