<svg fill="none" height="126" viewBox="0 0 678 126" width="678" xmlns="http://www.w3.org/2000/svg"><g fill="#fff"><path clip-rule="evenodd" d="m100.579 26.3604c1.766-.0126 3.166.4504 4.199 1.3888 1.034.9385 1.554 2.3957 1.561 4.3717 0 16.8547-10.3956 30.8507-25.9276 35.0369-.5772.1556-1.3923.3335-2.4453.5335l-.2473.0465c-.9973.1862-1.91.6837-2.607 1.4209-1.0764 1.1383-1.789 1.9573-2.1378 2.4567-5.0778 7.2695-6.7113 12.2397-8.0386 17.1704l-.1363.5101c-.0452.17-.0901.34-.135.5103l-.2014.7671-.1288.4908c-.3016 1.1471-.6126 2.3107-.9715 3.5184-.5914 1.9368-1.9761 4.7384-4.097 4.7384-2.1208 0-2.7343-1.7629-2.7343-3.8834 0-6.3708 3.0482-17.4985 9.1426-26.8677 4.8522-7.4594 12.5464-16.3938 22.1867-23.931.8001-.6256.5465-1.2683-.3529-.7063-9.9085 6.1928-18.2569 13.419-23.1583 20.4907l-.1945.2829-.0557.0824c-.7576 1.1194-1.4609 2.233-2.1132 3.3378-4.0785-5.8904-8.2233-10.0691-16.2296-15.9503-1.2409-.9115-2.1697-.7187-1.3893 0 7.938 7.3108 15.3514 20.1458 15.2934 20.2645-17.6587-.0848-32.0554-13.9707-32.9566-31.4252-.0037-.0715-.0241-.3374-.0268-.723l.0003-.2024c.012-1.2348.2227-3.3811 1.482-4.5833 1.7116-1.6338 5.4745-1.4228 5.8127-1.4018 14.8375.9167 27.0345 11.5896 30.2543 25.6821 1.5502-18.7183 17.2339-33.4265 36.3528-33.4265z" fill-rule="evenodd"/><path d="m151.978 41.5562-8.319 6.5313c-.412-1.3063-.882-2.2917-1.409-2.9563-.504-.6646-1.111-.9969-1.822-.9969-1.031 0-1.799.424-2.303 1.2719-.481.8479-.722 2.1656-.722 3.9531v3.7125h6.394v8.4563h-6.394v19.3531h6.738v8.3188h-23.513v-8.3188h5.294v-19.3531h-4.847v-8.4563h4.847v-3.7125c0-3.9416 1.18-7.0698 3.54-9.3843 2.384-2.3375 5.844-3.5063 10.382-3.5063 5.683 0 9.728 1.6958 12.134 5.0875zm21.053 39.325v8.3188h-22.31v-8.3188h5.638v-35.2h-5.638v-8.2844h17.188v43.4844zm37.111-9.7625c0 3.5979-.848 6.8406-2.544 9.7281s-3.987 5.1448-6.875 6.7719c-2.887 1.6271-6.061 2.4406-9.522 2.4406-3.666 0-6.943-.8135-9.831-2.4406-2.887-1.6271-5.145-3.8844-6.772-6.7719-1.604-2.8875-2.406-6.1302-2.406-9.7281 0-3.575.825-6.7948 2.475-9.6594 1.673-2.8646 3.965-5.1104 6.875-6.7375 2.91-1.65 6.13-2.475 9.659-2.475 3.598 0 6.841.825 9.728 2.475 2.888 1.6271 5.145 3.8729 6.772 6.7375s2.441 6.0844 2.441 9.6594zm-19.009 9.9688c2.245 0 3.999-.8709 5.259-2.6125 1.283-1.7646 1.925-4.2855 1.925-7.5625 0-3.0709-.642-5.4657-1.925-7.1844-1.26-1.7417-3.036-2.6125-5.328-2.6125-2.315 0-4.068.8594-5.26 2.5781-1.191 1.6958-1.787 4.2625-1.787 7.7 0 2.9104.642 5.2594 1.925 7.0469 1.306 1.7646 3.036 2.6469 5.191 2.6469zm37.705-.825c1.971 0 4.102-.8709 6.394-2.6125v-16.1219h-5.535v-8.4563h17.016v27.8094h5.912v8.3188h-17.393v-3.025c-3.598 2.3833-7.093 3.575-10.485 3.575-3.506 0-6.233-.974-8.181-2.9219s-2.922-4.6292-2.922-8.0438v-17.2562h-5.431v-8.4563h16.844v22.7563c0 1.6958.263 2.8646.79 3.5062.55.6188 1.547.9282 2.991.9282zm56.609-27.6032v10.8282c-3.163.2062-5.684.7104-7.563 1.5125-1.856.7791-3.3 2.1312-4.331 4.0562-1.008 1.925-1.513 4.675-1.513 8.25v3.575h7.185v8.3188h-25.335v-8.3188h6.635v-19.3531h-6.291v-8.4563h16.844v9.1782c.848-2.773 2.418-5.0761 4.709-6.9094 2.292-1.8334 5.134-2.75 8.525-2.75.504 0 .883.0229 1.135.0687zm19.364-9.8656c0 1.8333-.63 3.3573-1.891 4.5719-1.237 1.1916-2.716 1.7875-4.434 1.7875-1.742 0-3.243-.6188-4.503-1.8563-1.238-1.2604-1.857-2.7614-1.857-4.5031 0-1.7187.619-3.1969 1.857-4.4344 1.26-1.2604 2.761-1.8906 4.503-1.8906 1.718 0 3.197.6302 4.434 1.8906 1.261 1.2375 1.891 2.7157 1.891 4.4344zm4.64 38.0875v8.3188h-22.309v-8.3188h5.5v-19.3531h-5.5v-8.4563h16.947v27.8094zm22.889-26.5375v-1.2719h8.215v10.5875h-8.215c-.711-2.5437-3.346-3.8156-7.907-3.8156-3.277 0-4.915.9167-4.915 2.75 0 .8021.435 1.3979 1.306 1.7875s2.143.7104 3.816.9625c4.698.5958 8.399 1.4552 11.103 2.5781 2.704 1.1 4.595 2.475 5.672 4.125 1.077 1.6271 1.615 3.6094 1.615 5.9469 0 3.8042-1.306 6.7719-3.919 8.9031-2.589 2.1084-6.118 3.1625-10.587 3.1625-4.354 0-7.31-.8708-8.869-2.6125v1.7532h-8.387v-12.4438h8.387c.229 1.7188 1.054 3.0708 2.475 4.0563 1.444.9854 3.22 1.4781 5.328 1.4781 2.063 0 3.587-.2292 4.572-.6875.986-.4813 1.478-1.3063 1.478-2.475 0-.8021-.206-1.4209-.618-1.8563-.413-.4583-1.215-.8593-2.407-1.2031-1.168-.3437-2.967-.7333-5.397-1.1687-5.408-.848-9.304-2.2115-11.687-4.0907-2.36-1.9021-3.541-4.4573-3.541-7.6656 0-3.2771 1.226-5.8552 3.678-7.7344 2.475-1.8791 5.73-2.8187 9.763-2.8187 3.254 0 6.268.5844 9.041 1.7531zm37.445-2.0969c3.667 0 6.417 1.1115 8.25 3.3344 1.856 2.2229 2.784 5.4542 2.784 9.6938v15.6062h5.363v8.3188h-16.913v-23.375c0-1.4896-.286-2.5553-.859-3.1969-.55-.6417-1.478-.9625-2.784-.9625-1.788 0-3.805.7333-6.05 2.2v17.0156h5.053v8.3188h-22.378v-8.3188h5.843v-35.2h-5.843v-8.2844h17.325v18.6313c3.712-2.5209 7.115-3.7813 10.209-3.7813zm57.346 5.2594v-4.4344h17.428v8.4563h-5.981v26.9844c0 5.6604-1.547 9.9802-4.641 12.9595-3.094 2.979-7.86 4.469-14.3 4.469-7.127 0-12.444-1.307-15.95-3.919l5.603-7.597c2.956 1.8104 5.867 2.7156 8.731 2.7156 2.407 0 4.263-.3667 5.569-1.1 1.329-.7104 2.246-1.8219 2.75-3.3344.527-1.4896.791-3.5062.791-6.05v-1.9594c-3.804 3.3688-7.494 5.0532-11.069 5.0532-2.956 0-5.58-.7792-7.872-2.3375-2.269-1.5813-4.022-3.7813-5.259-6.6-1.238-2.8188-1.857-6.05-1.857-9.6938 0-3.575.654-6.7719 1.96-9.5906 1.329-2.8188 3.197-5.0073 5.603-6.5656 2.406-1.5813 5.087-2.3719 8.044-2.3719 4.285 0 7.769 1.6385 10.45 4.9156zm-7.185 22.8938c2.109 0 3.839-.8021 5.191-2.4063 1.375-1.6271 2.063-3.8729 2.063-6.7375 0-2.9104-.654-5.2021-1.96-6.875-1.283-1.6729-3.048-2.5094-5.294-2.5094-2.177 0-3.895.8594-5.156 2.5782-1.26 1.7187-1.891 3.9645-1.891 6.7375 0 2.6583.631 4.8583 1.891 6.6 1.261 1.7416 2.979 2.6125 5.156 2.6125zm59.29-12.8907v13.3719h5.844v8.3188h-17.325v-2.8188c-3.277 2.2458-6.554 3.3688-9.831 3.3688-3.965 0-7.139-1.0198-9.522-3.0594s-3.575-4.7896-3.575-8.25c0-3.6667 1.329-6.6 3.987-8.8 2.682-2.2229 6.234-3.3344 10.657-3.3344 1.535 0 2.899.1719 4.09.5156 1.215.3209 2.613.8823 4.194 1.6844v-2.8875c0-1.8333-.573-3.3-1.719-4.4-1.145-1.1-2.864-1.65-5.156-1.65-2.498 0-4.709.9625-6.634 2.8875l-9.282-1.6844c2.819-5.6833 8.64-8.525 17.463-8.525 6.05 0 10.358 1.249 12.925 3.7469 2.59 2.475 3.884 6.3135 3.884 11.5156zm-18.734 15.0563c2.062 0 4.48-1.2375 7.253-3.7125v-3.2313c-2.475-1.6041-4.744-2.4062-6.806-2.4062-1.65 0-2.911.3896-3.781 1.1687-.871.7792-1.307 1.8907-1.307 3.3344 0 3.2313 1.547 4.8469 4.641 4.8469zm57.399-29.9063v10.8282c-3.162.2062-5.683.7104-7.562 1.5125-1.856.7791-3.3 2.1312-4.331 4.0562-1.009 1.925-1.513 4.675-1.513 8.25v3.575h7.184v8.3188h-25.334v-8.3188h6.634v-19.3531h-6.29v-8.4563h16.844v9.1782c.848-2.773 2.417-5.0761 4.709-6.9094 2.292-1.8334 5.133-2.75 8.525-2.75.504 0 .882.0229 1.134.0687zm42.955 28.2219v8.3188h-17.359v-4.2969c-3.3 3.2312-6.806 4.8469-10.519 4.8469-3.048 0-5.74-.8136-8.078-2.4407-2.337-1.65-4.171-3.9073-5.5-6.7718-1.306-2.8646-1.959-6.05-1.959-9.5563 0-3.6208.653-6.8521 1.959-9.6937 1.329-2.8417 3.197-5.0532 5.603-6.6344 2.406-1.6042 5.088-2.4063 8.044-2.4063 4.24 0 7.723 1.6386 10.45 4.9157v-11.4813h-5.706v-8.2844h17.153v43.4844zm-24.475-.2062c2.246 0 3.999-.8823 5.26-2.6469 1.283-1.7875 1.925-4.0906 1.925-6.9094 0-2.8187-.653-5.1219-1.96-6.9094-1.283-1.7875-3.048-2.6812-5.293-2.6812-2.177 0-3.908.8937-5.191 2.6812s-1.925 4.0677-1.925 6.8407c0 2.7958.642 5.0989 1.925 6.9093s3.036 2.7157 5.259 2.7157zm61.536-7.1157h-26.95c.275 2.7729 1.226 4.9729 2.853 6.6 1.65 1.6042 3.77 2.4063 6.359 2.4063 2.865 0 5.661-1.4209 8.388-4.2625l8.937 2.8875c-1.971 2.9562-4.411 5.1791-7.322 6.6687-2.91 1.4667-6.359 2.2-10.347 2.2-3.987 0-7.516-.7448-10.587-2.2343-3.048-1.5125-5.42-3.6438-7.116-6.3938-1.673-2.75-2.509-5.9812-2.509-9.6937 0-3.6667.871-6.9896 2.612-9.9688 1.765-2.9792 4.137-5.3052 7.116-6.9781 3.002-1.6959 6.256-2.5438 9.763-2.5438 3.804 0 7.115.8823 9.934 2.6469 2.819 1.7417 4.984 4.2281 6.497 7.4594 1.535 3.2083 2.326 6.9437 2.372 11.2062zm-19.353-13.6468c-2.063 0-3.724.5958-4.985 1.7875-1.237 1.1916-2.016 3.0135-2.337 5.4656h15.056c-.321-2.1542-1.203-3.8959-2.647-5.225-1.421-1.3521-3.117-2.0281-5.087-2.0281zm59.805 6.2562v14.7125h5.431v8.3188h-16.981v-22.1032c0-1.6958-.263-2.9218-.79-3.6781-.505-.7792-1.364-1.1687-2.579-1.1687-2.2 0-4.411.7906-6.634 2.3718v16.2594h5.638v8.3188h-22.585v-8.3188h5.5v-19.3531h-5.5v-8.4563h16.947v3.4032c3.438-2.5896 6.967-3.8844 10.588-3.8844 3.598 0 6.325 1.1458 8.181 3.4375 1.856 2.2687 2.784 5.6489 2.784 10.1406z"/></g></svg>