<svg width="60" height="60" viewBox="0 0 60 60" fill="none" xmlns="http://www.w3.org/2000/svg">
<rect width="60" height="60" rx="30" fill="#6D3C24" style="fill:#6D3C24;fill:color(display-p3 0.4275 0.2353 0.1412);fill-opacity:1;"/>
<mask id="mask0_9_4424" style="mask-type:alpha" maskUnits="userSpaceOnUse" x="0" y="0" width="60" height="60">
<rect width="60" height="60" rx="30" fill="white" style="fill:white;fill-opacity:1;"/>
</mask>
<g mask="url(#mask0_9_4424)">
<path d="M0.971556 0.612101C1.62747 0.233407 2.4356 0.233407 3.09151 0.612101V0.612101C3.74743 0.990795 4.15149 1.69065 4.15149 2.44804V2.44804C4.15149 3.20543 3.74743 3.90528 3.09151 4.28398V4.28398C2.4356 4.66267 1.62747 4.66267 0.971556 4.28398V4.28398C0.315638 3.90528 -0.0884233 3.20543 -0.0884233 2.44804V2.44804C-0.0884233 1.69065 0.315639 0.990795 0.971556 0.612101V0.612101Z" fill="#B36640" style="fill:#B36640;fill:color(display-p3 0.7000 0.3985 0.2508);fill-opacity:1;"/>
<path d="M6.38806 0.612101C7.04398 0.233407 7.8521 0.233407 8.50802 0.612101V0.612101C9.16394 0.990795 9.568 1.69065 9.568 2.44804V2.44804C9.568 3.20543 9.16394 3.90528 8.50802 4.28398V4.28398C7.8521 4.66267 7.04398 4.66267 6.38806 4.28398V4.28398C5.73214 3.90528 5.32808 3.20543 5.32808 2.44804V2.44804C5.32808 1.69065 5.73214 0.990795 6.38806 0.612101V0.612101Z" fill="#B36640" style="fill:#B36640;fill:color(display-p3 0.7000 0.3985 0.2508);fill-opacity:1;"/>
<path d="M11.8047 0.612101C12.4606 0.233407 13.2687 0.233407 13.9246 0.612101V0.612101C14.5806 0.990795 14.9846 1.69065 14.9846 2.44804V2.44804C14.9846 3.20543 14.5806 3.90528 13.9246 4.28398V4.28398C13.2687 4.66267 12.4606 4.66267 11.8047 4.28398V4.28398C11.1488 3.90528 10.7447 3.20543 10.7447 2.44804V2.44804C10.7447 1.69065 11.1488 0.990795 11.8047 0.612101V0.612101Z" fill="#B36640" style="fill:#B36640;fill:color(display-p3 0.7000 0.3985 0.2508);fill-opacity:1;"/>
<path d="M17.2214 0.612101C17.8774 0.233407 18.6855 0.233407 19.3414 0.612101V0.612101C19.9973 0.990795 20.4014 1.69065 20.4014 2.44804V2.44804C20.4014 3.20543 19.9973 3.90528 19.3414 4.28398V4.28398C18.6855 4.66267 17.8774 4.66267 17.2214 4.28398V4.28398C16.5655 3.90528 16.1615 3.20543 16.1615 2.44804V2.44804C16.1615 1.69065 16.5655 0.990795 17.2214 0.612101V0.612101Z" fill="#B36640" style="fill:#B36640;fill:color(display-p3 0.7000 0.3985 0.2508);fill-opacity:1;"/>
<path d="M22.6381 0.612101C23.294 0.233407 24.1021 0.233407 24.758 0.612101V0.612101C25.4139 0.990795 25.818 1.69065 25.818 2.44804V2.44804C25.818 3.20543 25.4139 3.90528 24.758 4.28398V4.28398C24.1021 4.66267 23.294 4.66267 22.6381 4.28398V4.28398C21.9821 3.90528 21.5781 3.20543 21.5781 2.44804V2.44804C21.5781 1.69065 21.9821 0.990795 22.6381 0.612101V0.612101Z" fill="#B36640" style="fill:#B36640;fill:color(display-p3 0.7000 0.3985 0.2508);fill-opacity:1;"/>
<path d="M28.0548 0.612101C28.7107 0.233407 29.5188 0.233407 30.1748 0.612101V0.612101C30.8307 0.990795 31.2347 1.69065 31.2347 2.44804V2.44804C31.2347 3.20543 30.8307 3.90528 30.1748 4.28398V4.28398C29.5188 4.66267 28.7107 4.66267 28.0548 4.28398V4.28398C27.3989 3.90528 26.9948 3.20543 26.9948 2.44804V2.44804C26.9948 1.69065 27.3989 0.990795 28.0548 0.612101V0.612101Z" fill="#B36640" style="fill:#B36640;fill:color(display-p3 0.7000 0.3985 0.2508);fill-opacity:1;"/>
<path d="M33.4714 0.612101C34.1274 0.233407 34.9355 0.233407 35.5914 0.612101V0.612101C36.2473 0.990795 36.6514 1.69065 36.6514 2.44804V2.44804C36.6514 3.20543 36.2473 3.90528 35.5914 4.28398V4.28398C34.9355 4.66267 34.1274 4.66267 33.4714 4.28398V4.28398C32.8155 3.90528 32.4115 3.20543 32.4115 2.44804V2.44804C32.4115 1.69065 32.8155 0.990795 33.4714 0.612101V0.612101Z" fill="#B36640" style="fill:#B36640;fill:color(display-p3 0.7000 0.3985 0.2508);fill-opacity:1;"/>
<path d="M38.8879 0.612101C39.5439 0.233407 40.352 0.233407 41.0079 0.612101V0.612101C41.6638 0.990795 42.0679 1.69065 42.0679 2.44804V2.44804C42.0679 3.20543 41.6638 3.90528 41.0079 4.28398V4.28398C40.352 4.66267 39.5439 4.66267 38.8879 4.28398V4.28398C38.232 3.90528 37.828 3.20543 37.828 2.44804V2.44804C37.828 1.69065 38.232 0.990795 38.8879 0.612101V0.612101Z" fill="#B36640" style="fill:#B36640;fill:color(display-p3 0.7000 0.3985 0.2508);fill-opacity:1;"/>
<path d="M44.3048 0.612101C44.9607 0.233407 45.7688 0.233407 46.4248 0.612101V0.612101C47.0807 0.990795 47.4847 1.69065 47.4847 2.44804V2.44804C47.4847 3.20543 47.0807 3.90528 46.4248 4.28398V4.28398C45.7688 4.66267 44.9607 4.66267 44.3048 4.28398V4.28398C43.6489 3.90528 43.2448 3.20543 43.2448 2.44804V2.44804C43.2448 1.69065 43.6489 0.990795 44.3048 0.612101V0.612101Z" fill="#B36640" style="fill:#B36640;fill:color(display-p3 0.7000 0.3985 0.2508);fill-opacity:1;"/>
<path d="M49.7216 0.612101C50.3775 0.233407 51.1856 0.233407 51.8415 0.612101V0.612101C52.4974 0.990795 52.9015 1.69065 52.9015 2.44804V2.44804C52.9015 3.20543 52.4974 3.90528 51.8415 4.28398V4.28398C51.1856 4.66267 50.3775 4.66267 49.7216 4.28398V4.28398C49.0656 3.90528 48.6616 3.20543 48.6616 2.44804V2.44804C48.6616 1.69065 49.0656 0.990795 49.7216 0.612101V0.612101Z" fill="#B36640" style="fill:#B36640;fill:color(display-p3 0.7000 0.3985 0.2508);fill-opacity:1;"/>
<path d="M55.1381 0.612101C55.794 0.233407 56.6021 0.233407 57.258 0.612101V0.612101C57.9139 0.990795 58.318 1.69065 58.318 2.44804V2.44804C58.318 3.20543 57.9139 3.90528 57.258 4.28398V4.28398C56.6021 4.66267 55.794 4.66267 55.1381 4.28398V4.28398C54.4821 3.90528 54.0781 3.20543 54.0781 2.44804V2.44804C54.0781 1.69065 54.4821 0.990795 55.1381 0.612101V0.612101Z" fill="#B36640" style="fill:#B36640;fill:color(display-p3 0.7000 0.3985 0.2508);fill-opacity:1;"/>
<path d="M60.5547 0.612101C61.2106 0.233407 62.0187 0.233407 62.6746 0.612101V0.612101C63.3306 0.990795 63.7346 1.69065 63.7346 2.44804V2.44804C63.7346 3.20543 63.3306 3.90528 62.6746 4.28398V4.28398C62.0187 4.66267 61.2106 4.66267 60.5547 4.28398V4.28398C59.8988 3.90528 59.4947 3.20543 59.4947 2.44804V2.44804C59.4947 1.69065 59.8988 0.990795 60.5547 0.612101V0.612101Z" fill="#B36640" style="fill:#B36640;fill:color(display-p3 0.7000 0.3985 0.2508);fill-opacity:1;"/>
<path d="M-1.94519 5.50804C-1.28927 5.12934 -0.481151 5.12934 0.174766 5.50804V5.50804C0.830683 5.88673 1.23475 6.58659 1.23475 7.34397V7.34397C1.23475 8.10136 0.830683 8.80122 0.174766 9.17991V9.17991C-0.481151 9.55861 -1.28928 9.55861 -1.94519 9.17991V9.17991C-2.60111 8.80122 -3.00517 8.10136 -3.00517 7.34397V7.34397C-3.00517 6.58659 -2.60111 5.88673 -1.94519 5.50804V5.50804Z" fill="#B36640" style="fill:#B36640;fill:color(display-p3 0.7000 0.3985 0.2508);fill-opacity:1;"/>
<path d="M3.47143 5.50804C4.12735 5.12934 4.93547 5.12934 5.59139 5.50804V5.50804C6.24731 5.88673 6.65137 6.58659 6.65137 7.34397V7.34397C6.65137 8.10136 6.24731 8.80122 5.59139 9.17991V9.17991C4.93547 9.55861 4.12735 9.55861 3.47143 9.17991V9.17991C2.81552 8.80122 2.41145 8.10136 2.41145 7.34397V7.34397C2.41145 6.58659 2.81552 5.88673 3.47143 5.50804V5.50804Z" fill="#B36640" style="fill:#B36640;fill:color(display-p3 0.7000 0.3985 0.2508);fill-opacity:1;"/>
<path d="M8.88818 5.50804C9.5441 5.12934 10.3522 5.12934 11.0081 5.50804V5.50804C11.6641 5.88673 12.0681 6.58659 12.0681 7.34397V7.34397C12.0681 8.10136 11.6641 8.80122 11.0081 9.17991V9.17991C10.3522 9.55861 9.5441 9.55861 8.88818 9.17991V9.17991C8.23226 8.80122 7.8282 8.10136 7.8282 7.34397V7.34397C7.8282 6.58659 8.23226 5.88673 8.88818 5.50804V5.50804Z" fill="#B36640" style="fill:#B36640;fill:color(display-p3 0.7000 0.3985 0.2508);fill-opacity:1;"/>
<path d="M14.3048 5.50804C14.9607 5.12934 15.7688 5.12934 16.4248 5.50804V5.50804C17.0807 5.88673 17.4847 6.58659 17.4847 7.34397V7.34397C17.4847 8.10136 17.0807 8.80122 16.4248 9.17991V9.17991C15.7688 9.55861 14.9607 9.55861 14.3048 9.17991V9.17991C13.6489 8.80122 13.2448 8.10136 13.2448 7.34397V7.34397C13.2448 6.58659 13.6489 5.88673 14.3048 5.50804V5.50804Z" fill="#B36640" style="fill:#B36640;fill:color(display-p3 0.7000 0.3985 0.2508);fill-opacity:1;"/>
<path d="M19.7214 5.50804C20.3774 5.12934 21.1855 5.12934 21.8414 5.50804V5.50804C22.4973 5.88673 22.9014 6.58659 22.9014 7.34397V7.34397C22.9014 8.10136 22.4973 8.80122 21.8414 9.17991V9.17991C21.1855 9.55861 20.3774 9.55861 19.7214 9.17991V9.17991C19.0655 8.80122 18.6615 8.10136 18.6615 7.34397V7.34397C18.6615 6.58659 19.0655 5.88673 19.7214 5.50804V5.50804Z" fill="#B36640" style="fill:#B36640;fill:color(display-p3 0.7000 0.3985 0.2508);fill-opacity:1;"/>
<path d="M25.1382 5.50804C25.7941 5.12934 26.6022 5.12934 27.2581 5.50804V5.50804C27.9141 5.88673 28.3181 6.58659 28.3181 7.34397V7.34397C28.3181 8.10136 27.9141 8.80122 27.2581 9.17991V9.17991C26.6022 9.55861 25.7941 9.55861 25.1382 9.17991V9.17991C24.4823 8.80122 24.0782 8.10136 24.0782 7.34397V7.34397C24.0782 6.58659 24.4823 5.88673 25.1382 5.50804V5.50804Z" fill="#B36640" style="fill:#B36640;fill:color(display-p3 0.7000 0.3985 0.2508);fill-opacity:1;"/>
<path d="M30.5548 5.50804C31.2107 5.12934 32.0188 5.12934 32.6748 5.50804V5.50804C33.3307 5.88673 33.7347 6.58659 33.7347 7.34397V7.34397C33.7347 8.10136 33.3307 8.80122 32.6748 9.17991V9.17991C32.0188 9.55861 31.2107 9.55861 30.5548 9.17991V9.17991C29.8989 8.80122 29.4948 8.10136 29.4948 7.34397V7.34397C29.4948 6.58659 29.8989 5.88673 30.5548 5.50804V5.50804Z" fill="#B36640" style="fill:#B36640;fill:color(display-p3 0.7000 0.3985 0.2508);fill-opacity:1;"/>
<path d="M35.9714 5.50804C36.6274 5.12934 37.4355 5.12934 38.0914 5.50804V5.50804C38.7473 5.88673 39.1514 6.58659 39.1514 7.34397V7.34397C39.1514 8.10136 38.7473 8.80122 38.0914 9.17991V9.17991C37.4355 9.55861 36.6274 9.55861 35.9714 9.17991V9.17991C35.3155 8.80122 34.9115 8.10136 34.9115 7.34397V7.34397C34.9115 6.58659 35.3155 5.88673 35.9714 5.50804V5.50804Z" fill="#B36640" style="fill:#B36640;fill:color(display-p3 0.7000 0.3985 0.2508);fill-opacity:1;"/>
<path d="M41.3882 5.50804C42.0441 5.12934 42.8522 5.12934 43.5081 5.50804V5.50804C44.1641 5.88673 44.5681 6.58659 44.5681 7.34397V7.34397C44.5681 8.10136 44.1641 8.80122 43.5081 9.17991V9.17991C42.8522 9.55861 42.0441 9.55861 41.3882 9.17991V9.17991C40.7323 8.80122 40.3282 8.10136 40.3282 7.34397V7.34397C40.3282 6.58659 40.7323 5.88673 41.3882 5.50804V5.50804Z" fill="#B36640" style="fill:#B36640;fill:color(display-p3 0.7000 0.3985 0.2508);fill-opacity:1;"/>
<path d="M46.8048 5.50804C47.4607 5.12934 48.2688 5.12934 48.9248 5.50804V5.50804C49.5807 5.88673 49.9847 6.58659 49.9847 7.34397V7.34397C49.9847 8.10136 49.5807 8.80122 48.9248 9.17991V9.17991C48.2688 9.55861 47.4607 9.55861 46.8048 9.17991V9.17991C46.1489 8.80122 45.7448 8.10136 45.7448 7.34397V7.34397C45.7448 6.58659 46.1489 5.88673 46.8048 5.50804V5.50804Z" fill="#B36640" style="fill:#B36640;fill:color(display-p3 0.7000 0.3985 0.2508);fill-opacity:1;"/>
<path d="M52.2214 5.50804C52.8774 5.12934 53.6855 5.12934 54.3414 5.50804V5.50804C54.9973 5.88673 55.4014 6.58659 55.4014 7.34397V7.34397C55.4014 8.10136 54.9973 8.80122 54.3414 9.17991V9.17991C53.6855 9.55861 52.8774 9.55861 52.2214 9.17991V9.17991C51.5655 8.80122 51.1615 8.10136 51.1615 7.34397V7.34397C51.1615 6.58659 51.5655 5.88673 52.2214 5.50804V5.50804Z" fill="#B36640" style="fill:#B36640;fill:color(display-p3 0.7000 0.3985 0.2508);fill-opacity:1;"/>
<path d="M57.6382 5.50804C58.2941 5.12934 59.1022 5.12934 59.7581 5.50804V5.50804C60.4141 5.88673 60.8181 6.58659 60.8181 7.34397V7.34397C60.8181 8.10136 60.4141 8.80122 59.7581 9.17991V9.17991C59.1022 9.55861 58.2941 9.55861 57.6382 9.17991V9.17991C56.9823 8.80122 56.5782 8.10136 56.5782 7.34397V7.34397C56.5782 6.58659 56.9823 5.88673 57.6382 5.50804V5.50804Z" fill="#B36640" style="fill:#B36640;fill:color(display-p3 0.7000 0.3985 0.2508);fill-opacity:1;"/>
<path d="M0.971556 10.4039C1.62747 10.0252 2.4356 10.0252 3.09151 10.4039V10.4039C3.74743 10.7826 4.15149 11.4825 4.15149 12.2398V12.2398C4.15149 12.9972 3.74743 13.6971 3.09151 14.0758V14.0758C2.4356 14.4545 1.62747 14.4545 0.971556 14.0758V14.0758C0.315638 13.6971 -0.0884233 12.9972 -0.0884233 12.2398V12.2398C-0.0884233 11.4825 0.315639 10.7826 0.971556 10.4039V10.4039Z" fill="#B36640" style="fill:#B36640;fill:color(display-p3 0.7000 0.3985 0.2508);fill-opacity:1;"/>
<path d="M6.38806 10.4039C7.04398 10.0252 7.8521 10.0252 8.50802 10.4039V10.4039C9.16394 10.7826 9.568 11.4825 9.568 12.2398V12.2398C9.568 12.9972 9.16394 13.6971 8.50802 14.0758V14.0758C7.8521 14.4545 7.04398 14.4545 6.38806 14.0758V14.0758C5.73214 13.6971 5.32808 12.9972 5.32808 12.2398V12.2398C5.32808 11.4825 5.73214 10.7826 6.38806 10.4039V10.4039Z" fill="#B36640" style="fill:#B36640;fill:color(display-p3 0.7000 0.3985 0.2508);fill-opacity:1;"/>
<path d="M11.8047 10.4039C12.4606 10.0252 13.2687 10.0252 13.9246 10.4039V10.4039C14.5806 10.7826 14.9846 11.4825 14.9846 12.2398V12.2398C14.9846 12.9972 14.5806 13.6971 13.9246 14.0758V14.0758C13.2687 14.4545 12.4606 14.4545 11.8047 14.0758V14.0758C11.1488 13.6971 10.7447 12.9972 10.7447 12.2398V12.2398C10.7447 11.4825 11.1488 10.7826 11.8047 10.4039V10.4039Z" fill="#B36640" style="fill:#B36640;fill:color(display-p3 0.7000 0.3985 0.2508);fill-opacity:1;"/>
<path d="M17.2214 10.4039C17.8774 10.0252 18.6855 10.0252 19.3414 10.4039V10.4039C19.9973 10.7826 20.4014 11.4825 20.4014 12.2398V12.2398C20.4014 12.9972 19.9973 13.6971 19.3414 14.0758V14.0758C18.6855 14.4545 17.8774 14.4545 17.2214 14.0758V14.0758C16.5655 13.6971 16.1615 12.9972 16.1615 12.2398V12.2398C16.1615 11.4825 16.5655 10.7826 17.2214 10.4039V10.4039Z" fill="#B36640" style="fill:#B36640;fill:color(display-p3 0.7000 0.3985 0.2508);fill-opacity:1;"/>
<path d="M22.6381 10.4039C23.294 10.0252 24.1021 10.0252 24.758 10.4039V10.4039C25.4139 10.7826 25.818 11.4825 25.818 12.2398V12.2398C25.818 12.9972 25.4139 13.6971 24.758 14.0758V14.0758C24.1021 14.4545 23.294 14.4545 22.6381 14.0758V14.0758C21.9821 13.6971 21.5781 12.9972 21.5781 12.2398V12.2398C21.5781 11.4825 21.9821 10.7826 22.6381 10.4039V10.4039Z" fill="#B36640" style="fill:#B36640;fill:color(display-p3 0.7000 0.3985 0.2508);fill-opacity:1;"/>
<path d="M28.0548 10.4039C28.7107 10.0252 29.5188 10.0252 30.1748 10.4039V10.4039C30.8307 10.7826 31.2347 11.4825 31.2347 12.2398V12.2398C31.2347 12.9972 30.8307 13.6971 30.1748 14.0758V14.0758C29.5188 14.4545 28.7107 14.4545 28.0548 14.0758V14.0758C27.3989 13.6971 26.9948 12.9972 26.9948 12.2398V12.2398C26.9948 11.4825 27.3989 10.7826 28.0548 10.4039V10.4039Z" fill="#B36640" style="fill:#B36640;fill:color(display-p3 0.7000 0.3985 0.2508);fill-opacity:1;"/>
<path d="M33.4714 10.4039C34.1274 10.0252 34.9355 10.0252 35.5914 10.4039V10.4039C36.2473 10.7826 36.6514 11.4825 36.6514 12.2398V12.2398C36.6514 12.9972 36.2473 13.6971 35.5914 14.0758V14.0758C34.9355 14.4545 34.1274 14.4545 33.4714 14.0758V14.0758C32.8155 13.6971 32.4115 12.9972 32.4115 12.2398V12.2398C32.4115 11.4825 32.8155 10.7826 33.4714 10.4039V10.4039Z" fill="#B36640" style="fill:#B36640;fill:color(display-p3 0.7000 0.3985 0.2508);fill-opacity:1;"/>
<path d="M38.8879 10.4039C39.5439 10.0252 40.352 10.0252 41.0079 10.4039V10.4039C41.6638 10.7826 42.0679 11.4825 42.0679 12.2398V12.2398C42.0679 12.9972 41.6638 13.6971 41.0079 14.0758V14.0758C40.352 14.4545 39.5439 14.4545 38.8879 14.0758V14.0758C38.232 13.6971 37.828 12.9972 37.828 12.2398V12.2398C37.828 11.4825 38.232 10.7826 38.8879 10.4039V10.4039Z" fill="#B36640" style="fill:#B36640;fill:color(display-p3 0.7000 0.3985 0.2508);fill-opacity:1;"/>
<path d="M44.3048 10.4039C44.9607 10.0252 45.7688 10.0252 46.4248 10.4039V10.4039C47.0807 10.7826 47.4847 11.4825 47.4847 12.2398V12.2398C47.4847 12.9972 47.0807 13.6971 46.4248 14.0758V14.0758C45.7688 14.4545 44.9607 14.4545 44.3048 14.0758V14.0758C43.6489 13.6971 43.2448 12.9972 43.2448 12.2398V12.2398C43.2448 11.4825 43.6489 10.7826 44.3048 10.4039V10.4039Z" fill="#B36640" style="fill:#B36640;fill:color(display-p3 0.7000 0.3985 0.2508);fill-opacity:1;"/>
<path d="M49.7216 10.4039C50.3775 10.0252 51.1856 10.0252 51.8415 10.4039V10.4039C52.4974 10.7826 52.9015 11.4825 52.9015 12.2398V12.2398C52.9015 12.9972 52.4974 13.6971 51.8415 14.0758V14.0758C51.1856 14.4545 50.3775 14.4545 49.7216 14.0758V14.0758C49.0656 13.6971 48.6616 12.9972 48.6616 12.2398V12.2398C48.6616 11.4825 49.0656 10.7826 49.7216 10.4039V10.4039Z" fill="#B36640" style="fill:#B36640;fill:color(display-p3 0.7000 0.3985 0.2508);fill-opacity:1;"/>
<path d="M55.1381 10.4039C55.794 10.0252 56.6021 10.0252 57.258 10.4039V10.4039C57.9139 10.7826 58.318 11.4825 58.318 12.2398V12.2398C58.318 12.9972 57.9139 13.6971 57.258 14.0758V14.0758C56.6021 14.4545 55.794 14.4545 55.1381 14.0758V14.0758C54.4821 13.6971 54.0781 12.9972 54.0781 12.2398V12.2398C54.0781 11.4825 54.4821 10.7826 55.1381 10.4039V10.4039Z" fill="#B36640" style="fill:#B36640;fill:color(display-p3 0.7000 0.3985 0.2508);fill-opacity:1;"/>
<path d="M60.5547 10.4039C61.2106 10.0252 62.0187 10.0252 62.6746 10.4039V10.4039C63.3306 10.7826 63.7346 11.4825 63.7346 12.2398V12.2398C63.7346 12.9972 63.3306 13.6971 62.6746 14.0758V14.0758C62.0187 14.4545 61.2106 14.4545 60.5547 14.0758V14.0758C59.8988 13.6971 59.4947 12.9972 59.4947 12.2398V12.2398C59.4947 11.4825 59.8988 10.7826 60.5547 10.4039V10.4039Z" fill="#B36640" style="fill:#B36640;fill:color(display-p3 0.7000 0.3985 0.2508);fill-opacity:1;"/>
<path d="M-1.94519 15.2995C-1.28927 14.9208 -0.481151 14.9208 0.174766 15.2995V15.2995C0.830683 15.6782 1.23475 16.3781 1.23475 17.1355V17.1355C1.23475 17.8929 0.830683 18.5927 0.174766 18.9714V18.9714C-0.481151 19.3501 -1.28928 19.3501 -1.94519 18.9714V18.9714C-2.60111 18.5927 -3.00517 17.8929 -3.00517 17.1355V17.1355C-3.00517 16.3781 -2.60111 15.6782 -1.94519 15.2995V15.2995Z" fill="#B36640" style="fill:#B36640;fill:color(display-p3 0.7000 0.3985 0.2508);fill-opacity:1;"/>
<path d="M3.47143 15.2995C4.12735 14.9208 4.93547 14.9208 5.59139 15.2995V15.2995C6.24731 15.6782 6.65137 16.3781 6.65137 17.1355V17.1355C6.65137 17.8929 6.24731 18.5927 5.59139 18.9714V18.9714C4.93547 19.3501 4.12735 19.3501 3.47143 18.9714V18.9714C2.81552 18.5927 2.41145 17.8929 2.41145 17.1355V17.1355C2.41145 16.3781 2.81552 15.6782 3.47143 15.2995V15.2995Z" fill="#B36640" style="fill:#B36640;fill:color(display-p3 0.7000 0.3985 0.2508);fill-opacity:1;"/>
<path d="M8.88818 15.2995C9.5441 14.9208 10.3522 14.9208 11.0081 15.2995V15.2995C11.6641 15.6782 12.0681 16.3781 12.0681 17.1355V17.1355C12.0681 17.8929 11.6641 18.5927 11.0081 18.9714V18.9714C10.3522 19.3501 9.5441 19.3501 8.88818 18.9714V18.9714C8.23226 18.5927 7.8282 17.8929 7.8282 17.1355V17.1355C7.8282 16.3781 8.23226 15.6782 8.88818 15.2995V15.2995Z" fill="#B36640" style="fill:#B36640;fill:color(display-p3 0.7000 0.3985 0.2508);fill-opacity:1;"/>
<path d="M14.3048 15.2995C14.9607 14.9208 15.7688 14.9208 16.4248 15.2995V15.2995C17.0807 15.6782 17.4847 16.3781 17.4847 17.1355V17.1355C17.4847 17.8929 17.0807 18.5927 16.4248 18.9714V18.9714C15.7688 19.3501 14.9607 19.3501 14.3048 18.9714V18.9714C13.6489 18.5927 13.2448 17.8929 13.2448 17.1355V17.1355C13.2448 16.3781 13.6489 15.6782 14.3048 15.2995V15.2995Z" fill="#B36640" style="fill:#B36640;fill:color(display-p3 0.7000 0.3985 0.2508);fill-opacity:1;"/>
<path d="M19.7214 15.2995C20.3774 14.9208 21.1855 14.9208 21.8414 15.2995V15.2995C22.4973 15.6782 22.9014 16.3781 22.9014 17.1355V17.1355C22.9014 17.8929 22.4973 18.5927 21.8414 18.9714V18.9714C21.1855 19.3501 20.3774 19.3501 19.7214 18.9714V18.9714C19.0655 18.5927 18.6615 17.8929 18.6615 17.1355V17.1355C18.6615 16.3781 19.0655 15.6782 19.7214 15.2995V15.2995Z" fill="#B36640" style="fill:#B36640;fill:color(display-p3 0.7000 0.3985 0.2508);fill-opacity:1;"/>
<path d="M25.1382 15.2995C25.7941 14.9208 26.6022 14.9208 27.2581 15.2995V15.2995C27.9141 15.6782 28.3181 16.3781 28.3181 17.1355V17.1355C28.3181 17.8929 27.9141 18.5927 27.2581 18.9714V18.9714C26.6022 19.3501 25.7941 19.3501 25.1382 18.9714V18.9714C24.4823 18.5927 24.0782 17.8929 24.0782 17.1355V17.1355C24.0782 16.3781 24.4823 15.6782 25.1382 15.2995V15.2995Z" fill="#B36640" style="fill:#B36640;fill:color(display-p3 0.7000 0.3985 0.2508);fill-opacity:1;"/>
<path d="M30.5548 15.2995C31.2107 14.9208 32.0188 14.9208 32.6748 15.2995V15.2995C33.3307 15.6782 33.7347 16.3781 33.7347 17.1355V17.1355C33.7347 17.8929 33.3307 18.5927 32.6748 18.9714V18.9714C32.0188 19.3501 31.2107 19.3501 30.5548 18.9714V18.9714C29.8989 18.5927 29.4948 17.8929 29.4948 17.1355V17.1355C29.4948 16.3781 29.8989 15.6782 30.5548 15.2995V15.2995Z" fill="#B36640" style="fill:#B36640;fill:color(display-p3 0.7000 0.3985 0.2508);fill-opacity:1;"/>
<path d="M35.9714 15.2995C36.6274 14.9208 37.4355 14.9208 38.0914 15.2995V15.2995C38.7473 15.6782 39.1514 16.3781 39.1514 17.1355V17.1355C39.1514 17.8929 38.7473 18.5927 38.0914 18.9714V18.9714C37.4355 19.3501 36.6274 19.3501 35.9714 18.9714V18.9714C35.3155 18.5927 34.9115 17.8929 34.9115 17.1355V17.1355C34.9115 16.3781 35.3155 15.6782 35.9714 15.2995V15.2995Z" fill="#B36640" style="fill:#B36640;fill:color(display-p3 0.7000 0.3985 0.2508);fill-opacity:1;"/>
<path d="M41.3882 15.2995C42.0441 14.9208 42.8522 14.9208 43.5081 15.2995V15.2995C44.1641 15.6782 44.5681 16.3781 44.5681 17.1355V17.1355C44.5681 17.8929 44.1641 18.5927 43.5081 18.9714V18.9714C42.8522 19.3501 42.0441 19.3501 41.3882 18.9714V18.9714C40.7323 18.5927 40.3282 17.8929 40.3282 17.1355V17.1355C40.3282 16.3781 40.7323 15.6782 41.3882 15.2995V15.2995Z" fill="#B36640" style="fill:#B36640;fill:color(display-p3 0.7000 0.3985 0.2508);fill-opacity:1;"/>
<path d="M46.8048 15.2995C47.4607 14.9208 48.2688 14.9208 48.9248 15.2995V15.2995C49.5807 15.6782 49.9847 16.3781 49.9847 17.1355V17.1355C49.9847 17.8929 49.5807 18.5927 48.9248 18.9714V18.9714C48.2688 19.3501 47.4607 19.3501 46.8048 18.9714V18.9714C46.1489 18.5927 45.7448 17.8929 45.7448 17.1355V17.1355C45.7448 16.3781 46.1489 15.6782 46.8048 15.2995V15.2995Z" fill="#B36640" style="fill:#B36640;fill:color(display-p3 0.7000 0.3985 0.2508);fill-opacity:1;"/>
<path d="M52.2214 15.2995C52.8774 14.9208 53.6855 14.9208 54.3414 15.2995V15.2995C54.9973 15.6782 55.4014 16.3781 55.4014 17.1355V17.1355C55.4014 17.8929 54.9973 18.5927 54.3414 18.9714V18.9714C53.6855 19.3501 52.8774 19.3501 52.2214 18.9714V18.9714C51.5655 18.5927 51.1615 17.8929 51.1615 17.1355V17.1355C51.1615 16.3781 51.5655 15.6782 52.2214 15.2995V15.2995Z" fill="#B36640" style="fill:#B36640;fill:color(display-p3 0.7000 0.3985 0.2508);fill-opacity:1;"/>
<path d="M57.6382 15.2995C58.2941 14.9208 59.1022 14.9208 59.7581 15.2995V15.2995C60.4141 15.6782 60.8181 16.3781 60.8181 17.1355V17.1355C60.8181 17.8929 60.4141 18.5927 59.7581 18.9714V18.9714C59.1022 19.3501 58.2941 19.3501 57.6382 18.9714V18.9714C56.9823 18.5927 56.5782 17.8929 56.5782 17.1355V17.1355C56.5782 16.3781 56.9823 15.6782 57.6382 15.2995V15.2995Z" fill="#B36640" style="fill:#B36640;fill:color(display-p3 0.7000 0.3985 0.2508);fill-opacity:1;"/>
<path d="M0.971556 20.1953C1.62747 19.8166 2.4356 19.8166 3.09151 20.1953V20.1953C3.74743 20.574 4.15149 21.2738 4.15149 22.0312V22.0312C4.15149 22.7886 3.74743 23.4884 3.09151 23.8671V23.8671C2.4356 24.2458 1.62747 24.2458 0.971556 23.8671V23.8671C0.315638 23.4884 -0.0884233 22.7886 -0.0884233 22.0312V22.0312C-0.0884233 21.2738 0.315639 20.574 0.971556 20.1953V20.1953Z" fill="#B36640" style="fill:#B36640;fill:color(display-p3 0.7000 0.3985 0.2508);fill-opacity:1;"/>
<path d="M6.38806 20.1953C7.04398 19.8166 7.8521 19.8166 8.50802 20.1953V20.1953C9.16394 20.574 9.568 21.2738 9.568 22.0312V22.0312C9.568 22.7886 9.16394 23.4884 8.50802 23.8671V23.8671C7.8521 24.2458 7.04398 24.2458 6.38806 23.8671V23.8671C5.73214 23.4884 5.32808 22.7886 5.32808 22.0312V22.0312C5.32808 21.2738 5.73214 20.574 6.38806 20.1953V20.1953Z" fill="#B36640" style="fill:#B36640;fill:color(display-p3 0.7000 0.3985 0.2508);fill-opacity:1;"/>
<path d="M11.8047 20.1953C12.4606 19.8166 13.2687 19.8166 13.9246 20.1953V20.1953C14.5806 20.574 14.9846 21.2738 14.9846 22.0312V22.0312C14.9846 22.7886 14.5806 23.4884 13.9246 23.8671V23.8671C13.2687 24.2458 12.4606 24.2458 11.8047 23.8671V23.8671C11.1488 23.4884 10.7447 22.7886 10.7447 22.0312V22.0312C10.7447 21.2738 11.1488 20.574 11.8047 20.1953V20.1953Z" fill="#B36640" style="fill:#B36640;fill:color(display-p3 0.7000 0.3985 0.2508);fill-opacity:1;"/>
<path d="M17.2214 20.1953C17.8774 19.8166 18.6855 19.8166 19.3414 20.1953V20.1953C19.9973 20.574 20.4014 21.2738 20.4014 22.0312V22.0312C20.4014 22.7886 19.9973 23.4884 19.3414 23.8671V23.8671C18.6855 24.2458 17.8774 24.2458 17.2214 23.8671V23.8671C16.5655 23.4884 16.1615 22.7886 16.1615 22.0312V22.0312C16.1615 21.2738 16.5655 20.574 17.2214 20.1953V20.1953Z" fill="#B36640" style="fill:#B36640;fill:color(display-p3 0.7000 0.3985 0.2508);fill-opacity:1;"/>
<path d="M22.6381 20.1953C23.294 19.8166 24.1021 19.8166 24.758 20.1953V20.1953C25.4139 20.574 25.818 21.2738 25.818 22.0312V22.0312C25.818 22.7886 25.4139 23.4884 24.758 23.8671V23.8671C24.1021 24.2458 23.294 24.2458 22.6381 23.8671V23.8671C21.9821 23.4884 21.5781 22.7886 21.5781 22.0312V22.0312C21.5781 21.2738 21.9821 20.574 22.6381 20.1953V20.1953Z" fill="#B36640" style="fill:#B36640;fill:color(display-p3 0.7000 0.3985 0.2508);fill-opacity:1;"/>
<path d="M28.0548 20.1953C28.7107 19.8166 29.5188 19.8166 30.1748 20.1953V20.1953C30.8307 20.574 31.2347 21.2738 31.2347 22.0312V22.0312C31.2347 22.7886 30.8307 23.4884 30.1748 23.8671V23.8671C29.5188 24.2458 28.7107 24.2458 28.0548 23.8671V23.8671C27.3989 23.4884 26.9948 22.7886 26.9948 22.0312V22.0312C26.9948 21.2738 27.3989 20.574 28.0548 20.1953V20.1953Z" fill="#B36640" style="fill:#B36640;fill:color(display-p3 0.7000 0.3985 0.2508);fill-opacity:1;"/>
<path d="M33.4714 20.1953C34.1274 19.8166 34.9355 19.8166 35.5914 20.1953V20.1953C36.2473 20.574 36.6514 21.2738 36.6514 22.0312V22.0312C36.6514 22.7886 36.2473 23.4884 35.5914 23.8671V23.8671C34.9355 24.2458 34.1274 24.2458 33.4714 23.8671V23.8671C32.8155 23.4884 32.4115 22.7886 32.4115 22.0312V22.0312C32.4115 21.2738 32.8155 20.574 33.4714 20.1953V20.1953Z" fill="#B36640" style="fill:#B36640;fill:color(display-p3 0.7000 0.3985 0.2508);fill-opacity:1;"/>
<path d="M38.8879 20.1953C39.5439 19.8166 40.352 19.8166 41.0079 20.1953V20.1953C41.6638 20.574 42.0679 21.2738 42.0679 22.0312V22.0312C42.0679 22.7886 41.6638 23.4884 41.0079 23.8671V23.8671C40.352 24.2458 39.5439 24.2458 38.8879 23.8671V23.8671C38.232 23.4884 37.828 22.7886 37.828 22.0312V22.0312C37.828 21.2738 38.232 20.574 38.8879 20.1953V20.1953Z" fill="#B36640" style="fill:#B36640;fill:color(display-p3 0.7000 0.3985 0.2508);fill-opacity:1;"/>
<path d="M44.3048 20.1953C44.9607 19.8166 45.7688 19.8166 46.4248 20.1953V20.1953C47.0807 20.574 47.4847 21.2738 47.4847 22.0312V22.0312C47.4847 22.7886 47.0807 23.4884 46.4248 23.8671V23.8671C45.7688 24.2458 44.9607 24.2458 44.3048 23.8671V23.8671C43.6489 23.4884 43.2448 22.7886 43.2448 22.0312V22.0312C43.2448 21.2738 43.6489 20.574 44.3048 20.1953V20.1953Z" fill="#B36640" style="fill:#B36640;fill:color(display-p3 0.7000 0.3985 0.2508);fill-opacity:1;"/>
<path d="M49.7216 20.1953C50.3775 19.8166 51.1856 19.8166 51.8415 20.1953V20.1953C52.4974 20.574 52.9015 21.2738 52.9015 22.0312V22.0312C52.9015 22.7886 52.4974 23.4884 51.8415 23.8671V23.8671C51.1856 24.2458 50.3775 24.2458 49.7216 23.8671V23.8671C49.0656 23.4884 48.6616 22.7886 48.6616 22.0312V22.0312C48.6616 21.2738 49.0656 20.574 49.7216 20.1953V20.1953Z" fill="#B36640" style="fill:#B36640;fill:color(display-p3 0.7000 0.3985 0.2508);fill-opacity:1;"/>
<path d="M55.1381 20.1953C55.794 19.8166 56.6021 19.8166 57.258 20.1953V20.1953C57.9139 20.574 58.318 21.2738 58.318 22.0312V22.0312C58.318 22.7886 57.9139 23.4884 57.258 23.8671V23.8671C56.6021 24.2458 55.794 24.2458 55.1381 23.8671V23.8671C54.4821 23.4884 54.0781 22.7886 54.0781 22.0312V22.0312C54.0781 21.2738 54.4821 20.574 55.1381 20.1953V20.1953Z" fill="#B36640" style="fill:#B36640;fill:color(display-p3 0.7000 0.3985 0.2508);fill-opacity:1;"/>
<path d="M60.5547 20.1953C61.2106 19.8166 62.0187 19.8166 62.6746 20.1953V20.1953C63.3306 20.574 63.7346 21.2738 63.7346 22.0312V22.0312C63.7346 22.7886 63.3306 23.4884 62.6746 23.8671V23.8671C62.0187 24.2458 61.2106 24.2458 60.5547 23.8671V23.8671C59.8988 23.4884 59.4947 22.7886 59.4947 22.0312V22.0312C59.4947 21.2738 59.8988 20.574 60.5547 20.1953V20.1953Z" fill="#B36640" style="fill:#B36640;fill:color(display-p3 0.7000 0.3985 0.2508);fill-opacity:1;"/>
<path d="M-1.94519 25.0915C-1.28927 24.7128 -0.481151 24.7128 0.174766 25.0915V25.0915C0.830683 25.4702 1.23475 26.17 1.23475 26.9274V26.9274C1.23475 27.6848 0.830683 28.3847 0.174766 28.7633V28.7633C-0.481151 29.142 -1.28928 29.142 -1.94519 28.7633V28.7633C-2.60111 28.3847 -3.00517 27.6848 -3.00517 26.9274V26.9274C-3.00517 26.17 -2.60111 25.4702 -1.94519 25.0915V25.0915Z" fill="#B36640" style="fill:#B36640;fill:color(display-p3 0.7000 0.3985 0.2508);fill-opacity:1;"/>
<path d="M3.47143 25.0915C4.12735 24.7128 4.93547 24.7128 5.59139 25.0915V25.0915C6.24731 25.4702 6.65137 26.17 6.65137 26.9274V26.9274C6.65137 27.6848 6.24731 28.3847 5.59139 28.7633V28.7633C4.93547 29.142 4.12735 29.142 3.47143 28.7633V28.7633C2.81552 28.3847 2.41145 27.6848 2.41145 26.9274V26.9274C2.41145 26.17 2.81552 25.4702 3.47143 25.0915V25.0915Z" fill="#B36640" style="fill:#B36640;fill:color(display-p3 0.7000 0.3985 0.2508);fill-opacity:1;"/>
<path d="M8.88794 25.0915C9.54385 24.7128 10.352 24.7128 11.0079 25.0915V25.0915C11.6638 25.4702 12.0679 26.17 12.0679 26.9274V26.9274C12.0679 27.6848 11.6638 28.3847 11.0079 28.7633V28.7633C10.352 29.142 9.54385 29.142 8.88794 28.7633V28.7633C8.23202 28.3847 7.82796 27.6848 7.82796 26.9274V26.9274C7.82796 26.17 8.23202 25.4702 8.88794 25.0915V25.0915Z" fill="#B36640" style="fill:#B36640;fill:color(display-p3 0.7000 0.3985 0.2508);fill-opacity:1;"/>
<path d="M14.3048 25.0915C14.9607 24.7128 15.7688 24.7128 16.4248 25.0915V25.0915C17.0807 25.4702 17.4847 26.17 17.4847 26.9274V26.9274C17.4847 27.6848 17.0807 28.3847 16.4248 28.7633V28.7633C15.7688 29.142 14.9607 29.142 14.3048 28.7633V28.7633C13.6489 28.3847 13.2448 27.6848 13.2448 26.9274V26.9274C13.2448 26.17 13.6489 25.4702 14.3048 25.0915V25.0915Z" fill="#B36640" style="fill:#B36640;fill:color(display-p3 0.7000 0.3985 0.2508);fill-opacity:1;"/>
<path d="M19.7216 25.0915C20.3775 24.7128 21.1856 24.7128 21.8415 25.0915V25.0915C22.4974 25.4702 22.9015 26.17 22.9015 26.9274V26.9274C22.9015 27.6848 22.4974 28.3847 21.8415 28.7633V28.7633C21.1856 29.142 20.3775 29.142 19.7216 28.7633V28.7633C19.0656 28.3847 18.6616 27.6848 18.6616 26.9274V26.9274C18.6616 26.17 19.0656 25.4702 19.7216 25.0915V25.0915Z" fill="#B36640" style="fill:#B36640;fill:color(display-p3 0.7000 0.3985 0.2508);fill-opacity:1;"/>
<path d="M25.1381 25.0915C25.794 24.7128 26.6021 24.7128 27.258 25.0915V25.0915C27.9139 25.4702 28.318 26.17 28.318 26.9274V26.9274C28.318 27.6848 27.9139 28.3847 27.258 28.7633V28.7633C26.6021 29.142 25.794 29.142 25.1381 28.7633V28.7633C24.4821 28.3847 24.0781 27.6848 24.0781 26.9274V26.9274C24.0781 26.17 24.4821 25.4702 25.1381 25.0915V25.0915Z" fill="#B36640" style="fill:#B36640;fill:color(display-p3 0.7000 0.3985 0.2508);fill-opacity:1;"/>
<path d="M30.5547 25.0915C31.2106 24.7128 32.0187 24.7128 32.6746 25.0915V25.0915C33.3306 25.4702 33.7346 26.17 33.7346 26.9274V26.9274C33.7346 27.6848 33.3306 28.3847 32.6746 28.7633V28.7633C32.0187 29.142 31.2106 29.142 30.5547 28.7633V28.7633C29.8988 28.3847 29.4947 27.6848 29.4947 26.9274V26.9274C29.4947 26.17 29.8988 25.4702 30.5547 25.0915V25.0915Z" fill="#B36640" style="fill:#B36640;fill:color(display-p3 0.7000 0.3985 0.2508);fill-opacity:1;"/>
<path d="M35.9714 25.0915C36.6274 24.7128 37.4355 24.7128 38.0914 25.0915V25.0915C38.7473 25.4702 39.1514 26.17 39.1514 26.9274V26.9274C39.1514 27.6848 38.7473 28.3847 38.0914 28.7633V28.7633C37.4355 29.142 36.6274 29.142 35.9714 28.7633V28.7633C35.3155 28.3847 34.9115 27.6848 34.9115 26.9274V26.9274C34.9115 26.17 35.3155 25.4702 35.9714 25.0915V25.0915Z" fill="#B36640" style="fill:#B36640;fill:color(display-p3 0.7000 0.3985 0.2508);fill-opacity:1;"/>
<path d="M41.3881 25.0915C42.044 24.7128 42.8521 24.7128 43.508 25.0915V25.0915C44.1639 25.4702 44.568 26.17 44.568 26.9274V26.9274C44.568 27.6848 44.1639 28.3847 43.508 28.7633V28.7633C42.8521 29.142 42.044 29.142 41.3881 28.7633V28.7633C40.7321 28.3847 40.3281 27.6848 40.3281 26.9274V26.9274C40.3281 26.17 40.7321 25.4702 41.3881 25.0915V25.0915Z" fill="#B36640" style="fill:#B36640;fill:color(display-p3 0.7000 0.3985 0.2508);fill-opacity:1;"/>
<path d="M46.8048 25.0915C47.4607 24.7128 48.2688 24.7128 48.9248 25.0915V25.0915C49.5807 25.4702 49.9847 26.17 49.9847 26.9274V26.9274C49.9847 27.6848 49.5807 28.3847 48.9248 28.7633V28.7633C48.2688 29.142 47.4607 29.142 46.8048 28.7633V28.7633C46.1489 28.3847 45.7448 27.6848 45.7448 26.9274V26.9274C45.7448 26.17 46.1489 25.4702 46.8048 25.0915V25.0915Z" fill="#B36640" style="fill:#B36640;fill:color(display-p3 0.7000 0.3985 0.2508);fill-opacity:1;"/>
<path d="M52.2214 25.0915C52.8774 24.7128 53.6855 24.7128 54.3414 25.0915V25.0915C54.9973 25.4702 55.4014 26.17 55.4014 26.9274V26.9274C55.4014 27.6848 54.9973 28.3847 54.3414 28.7633V28.7633C53.6855 29.142 52.8774 29.142 52.2214 28.7633V28.7633C51.5655 28.3847 51.1615 27.6848 51.1615 26.9274V26.9274C51.1615 26.17 51.5655 25.4702 52.2214 25.0915V25.0915Z" fill="#B36640" style="fill:#B36640;fill:color(display-p3 0.7000 0.3985 0.2508);fill-opacity:1;"/>
<path d="M57.6379 25.0915C58.2939 24.7128 59.102 24.7128 59.7579 25.0915V25.0915C60.4138 25.4702 60.8179 26.17 60.8179 26.9274V26.9274C60.8179 27.6848 60.4138 28.3847 59.7579 28.7633V28.7633C59.102 29.142 58.2939 29.142 57.6379 28.7633V28.7633C56.982 28.3847 56.578 27.6848 56.578 26.9274V26.9274C56.578 26.17 56.982 25.4702 57.6379 25.0915V25.0915Z" fill="#B36640" style="fill:#B36640;fill:color(display-p3 0.7000 0.3985 0.2508);fill-opacity:1;"/>
<path d="M0.971434 29.9867C1.62735 29.608 2.43547 29.608 3.09139 29.9867V29.9867C3.74731 30.3654 4.15137 31.0653 4.15137 31.8227V31.8227C4.15137 32.5801 3.74731 33.2799 3.09139 33.6586V33.6586C2.43547 34.0373 1.62735 34.0373 0.971434 33.6586V33.6586C0.315516 33.2799 -0.0885453 32.5801 -0.0885453 31.8227V31.8227C-0.0885453 31.0653 0.315517 30.3654 0.971434 29.9867V29.9867Z" fill="#B36640" style="fill:#B36640;fill:color(display-p3 0.7000 0.3985 0.2508);fill-opacity:1;"/>
<path d="M6.38806 29.9867C7.04398 29.608 7.8521 29.608 8.50802 29.9867V29.9867C9.16394 30.3654 9.568 31.0653 9.568 31.8227V31.8227C9.568 32.5801 9.16394 33.2799 8.50802 33.6586V33.6586C7.8521 34.0373 7.04398 34.0373 6.38806 33.6586V33.6586C5.73214 33.2799 5.32808 32.5801 5.32808 31.8227V31.8227C5.32808 31.0653 5.73214 30.3654 6.38806 29.9867V29.9867Z" fill="#B36640" style="fill:#B36640;fill:color(display-p3 0.7000 0.3985 0.2508);fill-opacity:1;"/>
<path d="M11.8047 29.9867C12.4606 29.608 13.2687 29.608 13.9246 29.9867V29.9867C14.5806 30.3654 14.9846 31.0653 14.9846 31.8227V31.8227C14.9846 32.5801 14.5806 33.2799 13.9246 33.6586V33.6586C13.2687 34.0373 12.4606 34.0373 11.8047 33.6586V33.6586C11.1488 33.2799 10.7447 32.5801 10.7447 31.8227V31.8227C10.7447 31.0653 11.1488 30.3654 11.8047 29.9867V29.9867Z" fill="#B36640" style="fill:#B36640;fill:color(display-p3 0.7000 0.3985 0.2508);fill-opacity:1;"/>
<path d="M17.2214 29.9867C17.8774 29.608 18.6855 29.608 19.3414 29.9867V29.9867C19.9973 30.3654 20.4014 31.0653 20.4014 31.8227V31.8227C20.4014 32.5801 19.9973 33.2799 19.3414 33.6586V33.6586C18.6855 34.0373 17.8774 34.0373 17.2214 33.6586V33.6586C16.5655 33.2799 16.1615 32.5801 16.1615 31.8227V31.8227C16.1615 31.0653 16.5655 30.3654 17.2214 29.9867V29.9867Z" fill="#B36640" style="fill:#B36640;fill:color(display-p3 0.7000 0.3985 0.2508);fill-opacity:1;"/>
<path d="M22.6381 29.9867C23.294 29.608 24.1021 29.608 24.758 29.9867V29.9867C25.4139 30.3654 25.818 31.0653 25.818 31.8227V31.8227C25.818 32.5801 25.4139 33.2799 24.758 33.6586V33.6586C24.1021 34.0373 23.294 34.0373 22.6381 33.6586V33.6586C21.9821 33.2799 21.5781 32.5801 21.5781 31.8227V31.8227C21.5781 31.0653 21.9821 30.3654 22.6381 29.9867V29.9867Z" fill="#B36640" style="fill:#B36640;fill:color(display-p3 0.7000 0.3985 0.2508);fill-opacity:1;"/>
<path d="M28.0548 29.9867C28.7107 29.608 29.5188 29.608 30.1748 29.9867V29.9867C30.8307 30.3654 31.2347 31.0653 31.2347 31.8227V31.8227C31.2347 32.5801 30.8307 33.2799 30.1748 33.6586V33.6586C29.5188 34.0373 28.7107 34.0373 28.0548 33.6586V33.6586C27.3989 33.2799 26.9948 32.5801 26.9948 31.8227V31.8227C26.9948 31.0653 27.3989 30.3654 28.0548 29.9867V29.9867Z" fill="#B36640" style="fill:#B36640;fill:color(display-p3 0.7000 0.3985 0.2508);fill-opacity:1;"/>
<path d="M33.4714 29.9867C34.1274 29.608 34.9355 29.608 35.5914 29.9867V29.9867C36.2473 30.3654 36.6514 31.0653 36.6514 31.8227V31.8227C36.6514 32.5801 36.2473 33.2799 35.5914 33.6586V33.6586C34.9355 34.0373 34.1274 34.0373 33.4714 33.6586V33.6586C32.8155 33.2799 32.4115 32.5801 32.4115 31.8227V31.8227C32.4115 31.0653 32.8155 30.3654 33.4714 29.9867V29.9867Z" fill="#B36640" style="fill:#B36640;fill:color(display-p3 0.7000 0.3985 0.2508);fill-opacity:1;"/>
<path d="M38.8881 29.9867C39.544 29.608 40.3521 29.608 41.008 29.9867V29.9867C41.6639 30.3654 42.068 31.0653 42.068 31.8227V31.8227C42.068 32.5801 41.6639 33.2799 41.008 33.6586V33.6586C40.3521 34.0373 39.544 34.0373 38.8881 33.6586V33.6586C38.2321 33.2799 37.8281 32.5801 37.8281 31.8227V31.8227C37.8281 31.0653 38.2321 30.3654 38.8881 29.9867V29.9867Z" fill="#B36640" style="fill:#B36640;fill:color(display-p3 0.7000 0.3985 0.2508);fill-opacity:1;"/>
<path d="M44.3048 29.9867C44.9607 29.608 45.7688 29.608 46.4248 29.9867V29.9867C47.0807 30.3654 47.4847 31.0653 47.4847 31.8227V31.8227C47.4847 32.5801 47.0807 33.2799 46.4248 33.6586V33.6586C45.7688 34.0373 44.9607 34.0373 44.3048 33.6586V33.6586C43.6489 33.2799 43.2448 32.5801 43.2448 31.8227V31.8227C43.2448 31.0653 43.6489 30.3654 44.3048 29.9867V29.9867Z" fill="#B36640" style="fill:#B36640;fill:color(display-p3 0.7000 0.3985 0.2508);fill-opacity:1;"/>
<path d="M49.7214 29.9867C50.3774 29.608 51.1855 29.608 51.8414 29.9867V29.9867C52.4973 30.3654 52.9014 31.0653 52.9014 31.8227V31.8227C52.9014 32.5801 52.4973 33.2799 51.8414 33.6586V33.6586C51.1855 34.0373 50.3774 34.0373 49.7214 33.6586V33.6586C49.0655 33.2799 48.6615 32.5801 48.6615 31.8227V31.8227C48.6615 31.0653 49.0655 30.3654 49.7214 29.9867V29.9867Z" fill="#B36640" style="fill:#B36640;fill:color(display-p3 0.7000 0.3985 0.2508);fill-opacity:1;"/>
<path d="M55.1381 29.9867C55.794 29.608 56.6021 29.608 57.258 29.9867V29.9867C57.9139 30.3654 58.318 31.0653 58.318 31.8227V31.8227C58.318 32.5801 57.9139 33.2799 57.258 33.6586V33.6586C56.6021 34.0373 55.794 34.0373 55.1381 33.6586V33.6586C54.4821 33.2799 54.0781 32.5801 54.0781 31.8227V31.8227C54.0781 31.0653 54.4821 30.3654 55.1381 29.9867V29.9867Z" fill="#B36640" style="fill:#B36640;fill:color(display-p3 0.7000 0.3985 0.2508);fill-opacity:1;"/>
<path d="M60.5547 29.9867C61.2106 29.608 62.0187 29.608 62.6746 29.9867V29.9867C63.3306 30.3654 63.7346 31.0653 63.7346 31.8227V31.8227C63.7346 32.5801 63.3306 33.2799 62.6746 33.6586V33.6586C62.0187 34.0373 61.2106 34.0373 60.5547 33.6586V33.6586C59.8988 33.2799 59.4947 32.5801 59.4947 31.8227V31.8227C59.4947 31.0653 59.8988 30.3654 60.5547 29.9867V29.9867Z" fill="#B36640" style="fill:#B36640;fill:color(display-p3 0.7000 0.3985 0.2508);fill-opacity:1;"/>
<path d="M-1.94519 34.8829C-1.28927 34.5042 -0.481151 34.5042 0.174766 34.8829V34.8829C0.830683 35.2616 1.23475 35.9615 1.23475 36.7189V36.7189C1.23475 37.4762 0.830683 38.1761 0.174766 38.5548V38.5548C-0.481151 38.9335 -1.28928 38.9335 -1.94519 38.5548V38.5548C-2.60111 38.1761 -3.00517 37.4762 -3.00517 36.7189V36.7189C-3.00517 35.9615 -2.60111 35.2616 -1.94519 34.8829V34.8829Z" fill="#B36640" style="fill:#B36640;fill:color(display-p3 0.7000 0.3985 0.2508);fill-opacity:1;"/>
<path d="M3.47143 34.8829C4.12735 34.5042 4.93547 34.5042 5.59139 34.8829V34.8829C6.24731 35.2616 6.65137 35.9615 6.65137 36.7189V36.7189C6.65137 37.4762 6.24731 38.1761 5.59139 38.5548V38.5548C4.93547 38.9335 4.12735 38.9335 3.47143 38.5548V38.5548C2.81552 38.1761 2.41145 37.4762 2.41145 36.7189V36.7189C2.41145 35.9615 2.81552 35.2616 3.47143 34.8829V34.8829Z" fill="#B36640" style="fill:#B36640;fill:color(display-p3 0.7000 0.3985 0.2508);fill-opacity:1;"/>
<path d="M8.88794 34.8829C9.54385 34.5042 10.352 34.5042 11.0079 34.8829V34.8829C11.6638 35.2616 12.0679 35.9615 12.0679 36.7189V36.7189C12.0679 37.4762 11.6638 38.1761 11.0079 38.5548V38.5548C10.352 38.9335 9.54385 38.9335 8.88794 38.5548V38.5548C8.23202 38.1761 7.82796 37.4762 7.82796 36.7189V36.7189C7.82796 35.9615 8.23202 35.2616 8.88794 34.8829V34.8829Z" fill="#B36640" style="fill:#B36640;fill:color(display-p3 0.7000 0.3985 0.2508);fill-opacity:1;"/>
<path d="M14.3048 34.8829C14.9607 34.5042 15.7688 34.5042 16.4248 34.8829V34.8829C17.0807 35.2616 17.4847 35.9615 17.4847 36.7189V36.7189C17.4847 37.4762 17.0807 38.1761 16.4248 38.5548V38.5548C15.7688 38.9335 14.9607 38.9335 14.3048 38.5548V38.5548C13.6489 38.1761 13.2448 37.4762 13.2448 36.7189V36.7189C13.2448 35.9615 13.6489 35.2616 14.3048 34.8829V34.8829Z" fill="#B36640" style="fill:#B36640;fill:color(display-p3 0.7000 0.3985 0.2508);fill-opacity:1;"/>
<path d="M19.7216 34.8829C20.3775 34.5042 21.1856 34.5042 21.8415 34.8829V34.8829C22.4974 35.2616 22.9015 35.9615 22.9015 36.7189V36.7189C22.9015 37.4762 22.4974 38.1761 21.8415 38.5548V38.5548C21.1856 38.9335 20.3775 38.9335 19.7216 38.5548V38.5548C19.0656 38.1761 18.6616 37.4762 18.6616 36.7189V36.7189C18.6616 35.9615 19.0656 35.2616 19.7216 34.8829V34.8829Z" fill="#B36640" style="fill:#B36640;fill:color(display-p3 0.7000 0.3985 0.2508);fill-opacity:1;"/>
<path d="M25.1381 34.8829C25.794 34.5042 26.6021 34.5042 27.258 34.8829V34.8829C27.9139 35.2616 28.318 35.9615 28.318 36.7189V36.7189C28.318 37.4762 27.9139 38.1761 27.258 38.5548V38.5548C26.6021 38.9335 25.794 38.9335 25.1381 38.5548V38.5548C24.4821 38.1761 24.0781 37.4762 24.0781 36.7189V36.7189C24.0781 35.9615 24.4821 35.2616 25.1381 34.8829V34.8829Z" fill="#B36640" style="fill:#B36640;fill:color(display-p3 0.7000 0.3985 0.2508);fill-opacity:1;"/>
<path d="M30.5547 34.8829C31.2106 34.5042 32.0187 34.5042 32.6746 34.8829V34.8829C33.3306 35.2616 33.7346 35.9615 33.7346 36.7189V36.7189C33.7346 37.4762 33.3306 38.1761 32.6746 38.5548V38.5548C32.0187 38.9335 31.2106 38.9335 30.5547 38.5548V38.5548C29.8988 38.1761 29.4947 37.4762 29.4947 36.7189V36.7189C29.4947 35.9615 29.8988 35.2616 30.5547 34.8829V34.8829Z" fill="#B36640" style="fill:#B36640;fill:color(display-p3 0.7000 0.3985 0.2508);fill-opacity:1;"/>
<path d="M35.9714 34.8828C36.6274 34.5041 37.4355 34.5041 38.0914 34.8828V34.8828C38.7473 35.2615 39.1514 35.9613 39.1514 36.7187V36.7187C39.1514 37.4761 38.7473 38.176 38.0914 38.5547V38.5547C37.4355 38.9334 36.6274 38.9334 35.9714 38.5547V38.5547C35.3155 38.176 34.9115 37.4761 34.9115 36.7187V36.7187C34.9115 35.9613 35.3155 35.2615 35.9714 34.8828V34.8828Z" fill="#B36640" style="fill:#B36640;fill:color(display-p3 0.7000 0.3985 0.2508);fill-opacity:1;"/>
<path d="M41.3879 34.8829C42.0439 34.5042 42.852 34.5042 43.5079 34.8829V34.8829C44.1638 35.2616 44.5679 35.9615 44.5679 36.7189V36.7189C44.5679 37.4762 44.1638 38.1761 43.5079 38.5548V38.5548C42.852 38.9335 42.0439 38.9335 41.3879 38.5548V38.5548C40.732 38.1761 40.328 37.4762 40.328 36.7189V36.7189C40.328 35.9615 40.732 35.2616 41.3879 34.8829V34.8829Z" fill="#B36640" style="fill:#B36640;fill:color(display-p3 0.7000 0.3985 0.2508);fill-opacity:1;"/>
<path d="M46.8047 34.8829C47.4606 34.5042 48.2687 34.5042 48.9246 34.8829V34.8829C49.5806 35.2616 49.9846 35.9615 49.9846 36.7189V36.7189C49.9846 37.4762 49.5806 38.1761 48.9246 38.5548V38.5548C48.2687 38.9335 47.4606 38.9335 46.8047 38.5548V38.5548C46.1488 38.1761 45.7447 37.4762 45.7447 36.7189V36.7189C45.7447 35.9615 46.1488 35.2616 46.8047 34.8829V34.8829Z" fill="#B36640" style="fill:#B36640;fill:color(display-p3 0.7000 0.3985 0.2508);fill-opacity:1;"/>
<path d="M52.2216 34.8829C52.8775 34.5042 53.6856 34.5042 54.3415 34.8829V34.8829C54.9974 35.2616 55.4015 35.9615 55.4015 36.7189V36.7189C55.4015 37.4762 54.9974 38.1761 54.3415 38.5548V38.5548C53.6856 38.9335 52.8775 38.9335 52.2216 38.5548V38.5548C51.5656 38.1761 51.1616 37.4762 51.1616 36.7189V36.7189C51.1616 35.9615 51.5656 35.2616 52.2216 34.8829V34.8829Z" fill="#B36640" style="fill:#B36640;fill:color(display-p3 0.7000 0.3985 0.2508);fill-opacity:1;"/>
<path d="M57.6381 34.8829C58.294 34.5042 59.1021 34.5042 59.758 34.8829V34.8829C60.4139 35.2616 60.818 35.9615 60.818 36.7189V36.7189C60.818 37.4762 60.4139 38.1761 59.758 38.5548V38.5548C59.1021 38.9335 58.294 38.9335 57.6381 38.5548V38.5548C56.9821 38.1761 56.5781 37.4762 56.5781 36.7189V36.7189C56.5781 35.9615 56.9821 35.2616 57.6381 34.8829V34.8829Z" fill="#B36640" style="fill:#B36640;fill:color(display-p3 0.7000 0.3985 0.2508);fill-opacity:1;"/>
<path d="M0.971556 39.7785C1.62747 39.3998 2.4356 39.3998 3.09151 39.7785V39.7785C3.74743 40.1572 4.15149 40.857 4.15149 41.6144V41.6144C4.15149 42.3718 3.74743 43.0717 3.09151 43.4504V43.4504C2.4356 43.8291 1.62747 43.8291 0.971556 43.4504V43.4504C0.315638 43.0717 -0.0884233 42.3718 -0.0884233 41.6144V41.6144C-0.0884233 40.857 0.315639 40.1572 0.971556 39.7785V39.7785Z" fill="#B36640" style="fill:#B36640;fill:color(display-p3 0.7000 0.3985 0.2508);fill-opacity:1;"/>
<path d="M6.38806 39.7785C7.04398 39.3998 7.8521 39.3998 8.50802 39.7785V39.7785C9.16394 40.1572 9.568 40.857 9.568 41.6144V41.6144C9.568 42.3718 9.16394 43.0717 8.50802 43.4504V43.4504C7.8521 43.8291 7.04398 43.8291 6.38806 43.4504V43.4504C5.73214 43.0717 5.32808 42.3718 5.32808 41.6144V41.6144C5.32808 40.857 5.73214 40.1572 6.38806 39.7785V39.7785Z" fill="#B36640" style="fill:#B36640;fill:color(display-p3 0.7000 0.3985 0.2508);fill-opacity:1;"/>
<path d="M11.8047 39.7785C12.4606 39.3998 13.2687 39.3998 13.9246 39.7785V39.7785C14.5806 40.1572 14.9846 40.857 14.9846 41.6144V41.6144C14.9846 42.3718 14.5806 43.0717 13.9246 43.4504V43.4504C13.2687 43.8291 12.4606 43.8291 11.8047 43.4504V43.4504C11.1488 43.0717 10.7447 42.3718 10.7447 41.6144V41.6144C10.7447 40.857 11.1488 40.1572 11.8047 39.7785V39.7785Z" fill="#B36640" style="fill:#B36640;fill:color(display-p3 0.7000 0.3985 0.2508);fill-opacity:1;"/>
<path d="M17.2214 39.7785C17.8774 39.3998 18.6855 39.3998 19.3414 39.7785V39.7785C19.9973 40.1572 20.4014 40.857 20.4014 41.6144V41.6144C20.4014 42.3718 19.9973 43.0717 19.3414 43.4504V43.4504C18.6855 43.8291 17.8774 43.8291 17.2214 43.4504V43.4504C16.5655 43.0717 16.1615 42.3718 16.1615 41.6144V41.6144C16.1615 40.857 16.5655 40.1572 17.2214 39.7785V39.7785Z" fill="#B36640" style="fill:#B36640;fill:color(display-p3 0.7000 0.3985 0.2508);fill-opacity:1;"/>
<path d="M22.6381 39.7785C23.294 39.3998 24.1021 39.3998 24.758 39.7785V39.7785C25.4139 40.1572 25.818 40.857 25.818 41.6144V41.6144C25.818 42.3718 25.4139 43.0717 24.758 43.4504V43.4504C24.1021 43.8291 23.294 43.8291 22.6381 43.4504V43.4504C21.9821 43.0717 21.5781 42.3718 21.5781 41.6144V41.6144C21.5781 40.857 21.9821 40.1572 22.6381 39.7785V39.7785Z" fill="#B36640" style="fill:#B36640;fill:color(display-p3 0.7000 0.3985 0.2508);fill-opacity:1;"/>
<path d="M28.0548 39.7785C28.7107 39.3998 29.5188 39.3998 30.1748 39.7785V39.7785C30.8307 40.1572 31.2347 40.857 31.2347 41.6144V41.6144C31.2347 42.3718 30.8307 43.0717 30.1748 43.4504V43.4504C29.5188 43.8291 28.7107 43.8291 28.0548 43.4504V43.4504C27.3989 43.0717 26.9948 42.3718 26.9948 41.6144V41.6144C26.9948 40.857 27.3989 40.1572 28.0548 39.7785V39.7785Z" fill="#B36640" style="fill:#B36640;fill:color(display-p3 0.7000 0.3985 0.2508);fill-opacity:1;"/>
<path d="M33.4714 39.7785C34.1274 39.3998 34.9355 39.3998 35.5914 39.7785V39.7785C36.2473 40.1572 36.6514 40.857 36.6514 41.6144V41.6144C36.6514 42.3718 36.2473 43.0717 35.5914 43.4504V43.4504C34.9355 43.8291 34.1274 43.8291 33.4714 43.4504V43.4504C32.8155 43.0717 32.4115 42.3718 32.4115 41.6144V41.6144C32.4115 40.857 32.8155 40.1572 33.4714 39.7785V39.7785Z" fill="#B36640" style="fill:#B36640;fill:color(display-p3 0.7000 0.3985 0.2508);fill-opacity:1;"/>
<path d="M38.8879 39.7785C39.5439 39.3998 40.352 39.3998 41.0079 39.7785V39.7785C41.6638 40.1572 42.0679 40.857 42.0679 41.6144V41.6144C42.0679 42.3718 41.6638 43.0717 41.0079 43.4504V43.4504C40.352 43.8291 39.5439 43.8291 38.8879 43.4504V43.4504C38.232 43.0717 37.828 42.3718 37.828 41.6144V41.6144C37.828 40.857 38.232 40.1572 38.8879 39.7785V39.7785Z" fill="#B36640" style="fill:#B36640;fill:color(display-p3 0.7000 0.3985 0.2508);fill-opacity:1;"/>
<path d="M44.3048 39.7785C44.9607 39.3998 45.7688 39.3998 46.4248 39.7785V39.7785C47.0807 40.1572 47.4847 40.857 47.4847 41.6144V41.6144C47.4847 42.3718 47.0807 43.0717 46.4248 43.4504V43.4504C45.7688 43.8291 44.9607 43.8291 44.3048 43.4504V43.4504C43.6489 43.0717 43.2448 42.3718 43.2448 41.6144V41.6144C43.2448 40.857 43.6489 40.1572 44.3048 39.7785V39.7785Z" fill="#B36640" style="fill:#B36640;fill:color(display-p3 0.7000 0.3985 0.2508);fill-opacity:1;"/>
<path d="M49.7216 39.7785C50.3775 39.3998 51.1856 39.3998 51.8415 39.7785V39.7785C52.4974 40.1572 52.9015 40.857 52.9015 41.6144V41.6144C52.9015 42.3718 52.4974 43.0717 51.8415 43.4504V43.4504C51.1856 43.8291 50.3775 43.8291 49.7216 43.4504V43.4504C49.0656 43.0717 48.6616 42.3718 48.6616 41.6144V41.6144C48.6616 40.857 49.0656 40.1572 49.7216 39.7785V39.7785Z" fill="#B36640" style="fill:#B36640;fill:color(display-p3 0.7000 0.3985 0.2508);fill-opacity:1;"/>
<path d="M55.1381 39.7785C55.794 39.3998 56.6021 39.3998 57.258 39.7785V39.7785C57.9139 40.1572 58.318 40.857 58.318 41.6144V41.6144C58.318 42.3718 57.9139 43.0717 57.258 43.4504V43.4504C56.6021 43.8291 55.794 43.8291 55.1381 43.4504V43.4504C54.4821 43.0717 54.0781 42.3718 54.0781 41.6144V41.6144C54.0781 40.857 54.4821 40.1572 55.1381 39.7785V39.7785Z" fill="#B36640" style="fill:#B36640;fill:color(display-p3 0.7000 0.3985 0.2508);fill-opacity:1;"/>
<path d="M60.5547 39.7785C61.2106 39.3998 62.0187 39.3998 62.6746 39.7785V39.7785C63.3306 40.1572 63.7346 40.857 63.7346 41.6144V41.6144C63.7346 42.3718 63.3306 43.0717 62.6746 43.4504V43.4504C62.0187 43.8291 61.2106 43.8291 60.5547 43.4504V43.4504C59.8988 43.0717 59.4947 42.3718 59.4947 41.6144V41.6144C59.4947 40.857 59.8988 40.1572 60.5547 39.7785V39.7785Z" fill="#B36640" style="fill:#B36640;fill:color(display-p3 0.7000 0.3985 0.2508);fill-opacity:1;"/>
<path d="M-1.94519 44.6747C-1.28927 44.296 -0.481151 44.296 0.174766 44.6747V44.6747C0.830683 45.0534 1.23475 45.7532 1.23475 46.5106V46.5106C1.23475 47.268 0.830683 47.9678 0.174766 48.3465V48.3465C-0.481151 48.7252 -1.28928 48.7252 -1.94519 48.3465V48.3465C-2.60111 47.9678 -3.00517 47.268 -3.00517 46.5106V46.5106C-3.00517 45.7532 -2.60111 45.0534 -1.94519 44.6747V44.6747Z" fill="#B36640" style="fill:#B36640;fill:color(display-p3 0.7000 0.3985 0.2508);fill-opacity:1;"/>
<path d="M3.47143 44.6747C4.12735 44.296 4.93547 44.296 5.59139 44.6747V44.6747C6.24731 45.0534 6.65137 45.7532 6.65137 46.5106V46.5106C6.65137 47.268 6.24731 47.9678 5.59139 48.3465V48.3465C4.93547 48.7252 4.12735 48.7252 3.47143 48.3465V48.3465C2.81552 47.9678 2.41145 47.268 2.41145 46.5106V46.5106C2.41145 45.7532 2.81552 45.0534 3.47143 44.6747V44.6747Z" fill="#B36640" style="fill:#B36640;fill:color(display-p3 0.7000 0.3985 0.2508);fill-opacity:1;"/>
<path d="M8.88794 44.6747C9.54385 44.296 10.352 44.296 11.0079 44.6747V44.6747C11.6638 45.0534 12.0679 45.7532 12.0679 46.5106V46.5106C12.0679 47.268 11.6638 47.9678 11.0079 48.3465V48.3465C10.352 48.7252 9.54385 48.7252 8.88794 48.3465V48.3465C8.23202 47.9678 7.82796 47.268 7.82796 46.5106V46.5106C7.82796 45.7532 8.23202 45.0534 8.88794 44.6747V44.6747Z" fill="#B36640" style="fill:#B36640;fill:color(display-p3 0.7000 0.3985 0.2508);fill-opacity:1;"/>
<path d="M14.3048 44.6747C14.9607 44.296 15.7688 44.296 16.4248 44.6747V44.6747C17.0807 45.0534 17.4847 45.7532 17.4847 46.5106V46.5106C17.4847 47.268 17.0807 47.9678 16.4248 48.3465V48.3465C15.7688 48.7252 14.9607 48.7252 14.3048 48.3465V48.3465C13.6489 47.9678 13.2448 47.268 13.2448 46.5106V46.5106C13.2448 45.7532 13.6489 45.0534 14.3048 44.6747V44.6747Z" fill="#B36640" style="fill:#B36640;fill:color(display-p3 0.7000 0.3985 0.2508);fill-opacity:1;"/>
<path d="M19.7216 44.6747C20.3775 44.296 21.1856 44.296 21.8415 44.6747V44.6747C22.4974 45.0534 22.9015 45.7532 22.9015 46.5106V46.5106C22.9015 47.268 22.4974 47.9678 21.8415 48.3465V48.3465C21.1856 48.7252 20.3775 48.7252 19.7216 48.3465V48.3465C19.0656 47.9678 18.6616 47.268 18.6616 46.5106V46.5106C18.6616 45.7532 19.0656 45.0534 19.7216 44.6747V44.6747Z" fill="#B36640" style="fill:#B36640;fill:color(display-p3 0.7000 0.3985 0.2508);fill-opacity:1;"/>
<path d="M25.1381 44.6747C25.794 44.296 26.6021 44.296 27.258 44.6747V44.6747C27.9139 45.0534 28.318 45.7532 28.318 46.5106V46.5106C28.318 47.268 27.9139 47.9678 27.258 48.3465V48.3465C26.6021 48.7252 25.794 48.7252 25.1381 48.3465V48.3465C24.4821 47.9678 24.0781 47.268 24.0781 46.5106V46.5106C24.0781 45.7532 24.4821 45.0534 25.1381 44.6747V44.6747Z" fill="#B36640" style="fill:#B36640;fill:color(display-p3 0.7000 0.3985 0.2508);fill-opacity:1;"/>
<path d="M30.5547 44.6747C31.2106 44.296 32.0187 44.296 32.6746 44.6747V44.6747C33.3306 45.0534 33.7346 45.7532 33.7346 46.5106V46.5106C33.7346 47.268 33.3306 47.9678 32.6746 48.3465V48.3465C32.0187 48.7252 31.2106 48.7252 30.5547 48.3465V48.3465C29.8988 47.9678 29.4947 47.268 29.4947 46.5106V46.5106C29.4947 45.7532 29.8988 45.0534 30.5547 44.6747V44.6747Z" fill="#B36640" style="fill:#B36640;fill:color(display-p3 0.7000 0.3985 0.2508);fill-opacity:1;"/>
<path d="M35.9714 44.6746C36.6274 44.2959 37.4355 44.2959 38.0914 44.6746V44.6746C38.7473 45.0533 39.1514 45.7532 39.1514 46.5106V46.5106C39.1514 47.268 38.7473 47.9678 38.0914 48.3465V48.3465C37.4355 48.7252 36.6274 48.7252 35.9714 48.3465V48.3465C35.3155 47.9678 34.9115 47.268 34.9115 46.5106V46.5106C34.9115 45.7532 35.3155 45.0533 35.9714 44.6746V44.6746Z" fill="#B36640" style="fill:#B36640;fill:color(display-p3 0.7000 0.3985 0.2508);fill-opacity:1;"/>
<path d="M41.3879 44.6747C42.0439 44.296 42.852 44.296 43.5079 44.6747V44.6747C44.1638 45.0534 44.5679 45.7532 44.5679 46.5106V46.5106C44.5679 47.268 44.1638 47.9678 43.5079 48.3465V48.3465C42.852 48.7252 42.0439 48.7252 41.3879 48.3465V48.3465C40.732 47.9678 40.328 47.268 40.328 46.5106V46.5106C40.328 45.7532 40.732 45.0534 41.3879 44.6747V44.6747Z" fill="#B36640" style="fill:#B36640;fill:color(display-p3 0.7000 0.3985 0.2508);fill-opacity:1;"/>
<path d="M46.8047 44.6747C47.4606 44.296 48.2687 44.296 48.9246 44.6747V44.6747C49.5806 45.0534 49.9846 45.7532 49.9846 46.5106V46.5106C49.9846 47.268 49.5806 47.9678 48.9246 48.3465V48.3465C48.2687 48.7252 47.4606 48.7252 46.8047 48.3465V48.3465C46.1488 47.9678 45.7447 47.268 45.7447 46.5106V46.5106C45.7447 45.7532 46.1488 45.0534 46.8047 44.6747V44.6747Z" fill="#B36640" style="fill:#B36640;fill:color(display-p3 0.7000 0.3985 0.2508);fill-opacity:1;"/>
<path d="M52.2216 44.6747C52.8775 44.296 53.6856 44.296 54.3415 44.6747V44.6747C54.9974 45.0534 55.4015 45.7532 55.4015 46.5106V46.5106C55.4015 47.268 54.9974 47.9678 54.3415 48.3465V48.3465C53.6856 48.7252 52.8775 48.7252 52.2216 48.3465V48.3465C51.5656 47.9678 51.1616 47.268 51.1616 46.5106V46.5106C51.1616 45.7532 51.5656 45.0534 52.2216 44.6747V44.6747Z" fill="#B36640" style="fill:#B36640;fill:color(display-p3 0.7000 0.3985 0.2508);fill-opacity:1;"/>
<path d="M57.6381 44.6747C58.294 44.296 59.1021 44.296 59.758 44.6747V44.6747C60.4139 45.0534 60.818 45.7532 60.818 46.5106V46.5106C60.818 47.268 60.4139 47.9678 59.758 48.3465V48.3465C59.1021 48.7252 58.294 48.7252 57.6381 48.3465V48.3465C56.9821 47.9678 56.5781 47.268 56.5781 46.5106V46.5106C56.5781 45.7532 56.9821 45.0534 57.6381 44.6747V44.6747Z" fill="#B36640" style="fill:#B36640;fill:color(display-p3 0.7000 0.3985 0.2508);fill-opacity:1;"/>
<path d="M0.971434 49.5705C1.62735 49.1918 2.43547 49.1918 3.09139 49.5705V49.5705C3.74731 49.9492 4.15137 50.6491 4.15137 51.4065V51.4065C4.15137 52.1639 3.74731 52.8637 3.09139 53.2424V53.2424C2.43547 53.6211 1.62735 53.6211 0.971434 53.2424V53.2424C0.315516 52.8637 -0.0885453 52.1639 -0.0885453 51.4065V51.4065C-0.0885453 50.6491 0.315517 49.9492 0.971434 49.5705V49.5705Z" fill="#B36640" style="fill:#B36640;fill:color(display-p3 0.7000 0.3985 0.2508);fill-opacity:1;"/>
<path d="M6.38818 49.5705C7.0441 49.1918 7.85222 49.1918 8.50814 49.5705V49.5705C9.16406 49.9492 9.56812 50.6491 9.56812 51.4065V51.4065C9.56812 52.1639 9.16406 52.8637 8.50814 53.2424V53.2424C7.85222 53.6211 7.0441 53.6211 6.38818 53.2424V53.2424C5.73226 52.8637 5.3282 52.1639 5.3282 51.4065V51.4065C5.3282 50.6491 5.73226 49.9492 6.38818 49.5705V49.5705Z" fill="#B36640" style="fill:#B36640;fill:color(display-p3 0.7000 0.3985 0.2508);fill-opacity:1;"/>
<path d="M11.8048 49.5705C12.4607 49.1918 13.2688 49.1918 13.9248 49.5705V49.5705C14.5807 49.9492 14.9847 50.6491 14.9847 51.4065V51.4065C14.9847 52.1639 14.5807 52.8637 13.9248 53.2424V53.2424C13.2688 53.6211 12.4607 53.6211 11.8048 53.2424V53.2424C11.1489 52.8637 10.7448 52.1639 10.7448 51.4065V51.4065C10.7448 50.6491 11.1489 49.9492 11.8048 49.5705V49.5705Z" fill="#B36640" style="fill:#B36640;fill:color(display-p3 0.7000 0.3985 0.2508);fill-opacity:1;"/>
<path d="M17.2214 49.5705C17.8774 49.1918 18.6855 49.1918 19.3414 49.5705V49.5705C19.9973 49.9492 20.4014 50.6491 20.4014 51.4065V51.4065C20.4014 52.1639 19.9973 52.8637 19.3414 53.2424V53.2424C18.6855 53.6211 17.8774 53.6211 17.2214 53.2424V53.2424C16.5655 52.8637 16.1615 52.1639 16.1615 51.4065V51.4065C16.1615 50.6491 16.5655 49.9492 17.2214 49.5705V49.5705Z" fill="#B36640" style="fill:#B36640;fill:color(display-p3 0.7000 0.3985 0.2508);fill-opacity:1;"/>
<path d="M22.6382 49.5705C23.2941 49.1918 24.1022 49.1918 24.7581 49.5705V49.5705C25.4141 49.9492 25.8181 50.6491 25.8181 51.4065V51.4065C25.8181 52.1639 25.4141 52.8637 24.7581 53.2424V53.2424C24.1022 53.6211 23.2941 53.6211 22.6382 53.2424V53.2424C21.9823 52.8637 21.5782 52.1639 21.5782 51.4065V51.4065C21.5782 50.6491 21.9823 49.9492 22.6382 49.5705V49.5705Z" fill="#B36640" style="fill:#B36640;fill:color(display-p3 0.7000 0.3985 0.2508);fill-opacity:1;"/>
<path d="M28.0548 49.5705C28.7107 49.1918 29.5188 49.1918 30.1748 49.5705V49.5705C30.8307 49.9492 31.2347 50.6491 31.2347 51.4065V51.4065C31.2347 52.1639 30.8307 52.8637 30.1748 53.2424V53.2424C29.5188 53.6211 28.7107 53.6211 28.0548 53.2424V53.2424C27.3989 52.8637 26.9948 52.1639 26.9948 51.4065V51.4065C26.9948 50.6491 27.3989 49.9492 28.0548 49.5705V49.5705Z" fill="#B36640" style="fill:#B36640;fill:color(display-p3 0.7000 0.3985 0.2508);fill-opacity:1;"/>
<path d="M33.4714 49.5705C34.1274 49.1918 34.9355 49.1918 35.5914 49.5705V49.5705C36.2473 49.9492 36.6514 50.6491 36.6514 51.4065V51.4065C36.6514 52.1639 36.2473 52.8637 35.5914 53.2424V53.2424C34.9355 53.6211 34.1274 53.6211 33.4714 53.2424V53.2424C32.8155 52.8637 32.4115 52.1639 32.4115 51.4065V51.4065C32.4115 50.6491 32.8155 49.9492 33.4714 49.5705V49.5705Z" fill="#B36640" style="fill:#B36640;fill:color(display-p3 0.7000 0.3985 0.2508);fill-opacity:1;"/>
<path d="M38.8882 49.5705C39.5441 49.1918 40.3522 49.1918 41.0081 49.5705V49.5705C41.6641 49.9492 42.0681 50.6491 42.0681 51.4065V51.4065C42.0681 52.1639 41.6641 52.8637 41.0081 53.2424V53.2424C40.3522 53.6211 39.5441 53.6211 38.8882 53.2424V53.2424C38.2323 52.8637 37.8282 52.1639 37.8282 51.4065V51.4065C37.8282 50.6491 38.2323 49.9492 38.8882 49.5705V49.5705Z" fill="#B36640" style="fill:#B36640;fill:color(display-p3 0.7000 0.3985 0.2508);fill-opacity:1;"/>
<path d="M44.3048 49.5705C44.9607 49.1918 45.7688 49.1918 46.4248 49.5705V49.5705C47.0807 49.9492 47.4847 50.6491 47.4847 51.4065V51.4065C47.4847 52.1639 47.0807 52.8637 46.4248 53.2424V53.2424C45.7688 53.6211 44.9607 53.6211 44.3048 53.2424V53.2424C43.6489 52.8637 43.2448 52.1639 43.2448 51.4065V51.4065C43.2448 50.6491 43.6489 49.9492 44.3048 49.5705V49.5705Z" fill="#B36640" style="fill:#B36640;fill:color(display-p3 0.7000 0.3985 0.2508);fill-opacity:1;"/>
<path d="M49.7214 49.5705C50.3774 49.1918 51.1855 49.1918 51.8414 49.5705V49.5705C52.4973 49.9492 52.9014 50.6491 52.9014 51.4065V51.4065C52.9014 52.1639 52.4973 52.8637 51.8414 53.2424V53.2424C51.1855 53.6211 50.3774 53.6211 49.7214 53.2424V53.2424C49.0655 52.8637 48.6615 52.1639 48.6615 51.4065V51.4065C48.6615 50.6491 49.0655 49.9492 49.7214 49.5705V49.5705Z" fill="#B36640" style="fill:#B36640;fill:color(display-p3 0.7000 0.3985 0.2508);fill-opacity:1;"/>
<path d="M55.1382 49.5705C55.7941 49.1918 56.6022 49.1918 57.2581 49.5705V49.5705C57.9141 49.9492 58.3181 50.6491 58.3181 51.4065V51.4065C58.3181 52.1639 57.9141 52.8637 57.2581 53.2424V53.2424C56.6022 53.6211 55.7941 53.6211 55.1382 53.2424V53.2424C54.4823 52.8637 54.0782 52.1639 54.0782 51.4065V51.4065C54.0782 50.6491 54.4823 49.9492 55.1382 49.5705V49.5705Z" fill="#B36640" style="fill:#B36640;fill:color(display-p3 0.7000 0.3985 0.2508);fill-opacity:1;"/>
<path d="M60.5548 49.5705C61.2107 49.1918 62.0188 49.1918 62.6748 49.5705V49.5705C63.3307 49.9492 63.7347 50.6491 63.7347 51.4065V51.4065C63.7347 52.1639 63.3307 52.8637 62.6748 53.2424V53.2424C62.0188 53.6211 61.2107 53.6211 60.5548 53.2424V53.2424C59.8989 52.8637 59.4948 52.1639 59.4948 51.4065V51.4065C59.4948 50.6491 59.8989 49.9492 60.5548 49.5705V49.5705Z" fill="#B36640" style="fill:#B36640;fill:color(display-p3 0.7000 0.3985 0.2508);fill-opacity:1;"/>
<path d="M-1.94519 54.4664C-1.28927 54.0877 -0.481151 54.0877 0.174766 54.4664V54.4664C0.830683 54.8451 1.23475 55.545 1.23475 56.3023V56.3023C1.23475 57.0597 0.830683 57.7596 0.174766 58.1383V58.1383C-0.481151 58.517 -1.28928 58.517 -1.94519 58.1383V58.1383C-2.60111 57.7596 -3.00517 57.0597 -3.00517 56.3023V56.3023C-3.00517 55.545 -2.60111 54.8451 -1.94519 54.4664V54.4664Z" fill="#B36640" style="fill:#B36640;fill:color(display-p3 0.7000 0.3985 0.2508);fill-opacity:1;"/>
<path d="M3.47143 54.4664C4.12735 54.0877 4.93547 54.0877 5.59139 54.4664V54.4664C6.24731 54.8451 6.65137 55.545 6.65137 56.3023V56.3023C6.65137 57.0597 6.24731 57.7596 5.59139 58.1383V58.1383C4.93547 58.517 4.12735 58.517 3.47143 58.1383V58.1383C2.81552 57.7596 2.41145 57.0597 2.41145 56.3023V56.3023C2.41145 55.545 2.81552 54.8451 3.47143 54.4664V54.4664Z" fill="#B36640" style="fill:#B36640;fill:color(display-p3 0.7000 0.3985 0.2508);fill-opacity:1;"/>
<path d="M8.88794 54.4664C9.54385 54.0877 10.352 54.0877 11.0079 54.4664V54.4664C11.6638 54.8451 12.0679 55.545 12.0679 56.3023V56.3023C12.0679 57.0597 11.6638 57.7596 11.0079 58.1383V58.1383C10.352 58.517 9.54385 58.517 8.88794 58.1383V58.1383C8.23202 57.7596 7.82796 57.0597 7.82796 56.3023V56.3023C7.82796 55.545 8.23202 54.8451 8.88794 54.4664V54.4664Z" fill="#B36640" style="fill:#B36640;fill:color(display-p3 0.7000 0.3985 0.2508);fill-opacity:1;"/>
<path d="M14.3048 54.4664C14.9607 54.0877 15.7688 54.0877 16.4248 54.4664V54.4664C17.0807 54.8451 17.4847 55.545 17.4847 56.3023V56.3023C17.4847 57.0597 17.0807 57.7596 16.4248 58.1383V58.1383C15.7688 58.517 14.9607 58.517 14.3048 58.1383V58.1383C13.6489 57.7596 13.2448 57.0597 13.2448 56.3023V56.3023C13.2448 55.545 13.6489 54.8451 14.3048 54.4664V54.4664Z" fill="#B36640" style="fill:#B36640;fill:color(display-p3 0.7000 0.3985 0.2508);fill-opacity:1;"/>
<path d="M19.7216 54.4664C20.3775 54.0877 21.1856 54.0877 21.8415 54.4664V54.4664C22.4974 54.8451 22.9015 55.545 22.9015 56.3023V56.3023C22.9015 57.0597 22.4974 57.7596 21.8415 58.1383V58.1383C21.1856 58.517 20.3775 58.517 19.7216 58.1383V58.1383C19.0656 57.7596 18.6616 57.0597 18.6616 56.3023V56.3023C18.6616 55.545 19.0656 54.8451 19.7216 54.4664V54.4664Z" fill="#B36640" style="fill:#B36640;fill:color(display-p3 0.7000 0.3985 0.2508);fill-opacity:1;"/>
<path d="M25.1381 54.4664C25.794 54.0877 26.6021 54.0877 27.258 54.4664V54.4664C27.9139 54.8451 28.318 55.545 28.318 56.3023V56.3023C28.318 57.0597 27.9139 57.7596 27.258 58.1383V58.1383C26.6021 58.517 25.794 58.517 25.1381 58.1383V58.1383C24.4821 57.7596 24.0781 57.0597 24.0781 56.3023V56.3023C24.0781 55.545 24.4821 54.8451 25.1381 54.4664V54.4664Z" fill="#B36640" style="fill:#B36640;fill:color(display-p3 0.7000 0.3985 0.2508);fill-opacity:1;"/>
<path d="M30.5547 54.4664C31.2106 54.0877 32.0187 54.0877 32.6746 54.4664V54.4664C33.3306 54.8451 33.7346 55.545 33.7346 56.3023V56.3023C33.7346 57.0597 33.3306 57.7596 32.6746 58.1383V58.1383C32.0187 58.517 31.2106 58.517 30.5547 58.1383V58.1383C29.8988 57.7596 29.4947 57.0597 29.4947 56.3023V56.3023C29.4947 55.545 29.8988 54.8451 30.5547 54.4664V54.4664Z" fill="#B36640" style="fill:#B36640;fill:color(display-p3 0.7000 0.3985 0.2508);fill-opacity:1;"/>
<path d="M35.9714 54.4664C36.6274 54.0877 37.4355 54.0877 38.0914 54.4664V54.4664C38.7473 54.8451 39.1514 55.545 39.1514 56.3023V56.3023C39.1514 57.0597 38.7473 57.7596 38.0914 58.1383V58.1383C37.4355 58.517 36.6274 58.517 35.9714 58.1383V58.1383C35.3155 57.7596 34.9115 57.0597 34.9115 56.3023V56.3023C34.9115 55.545 35.3155 54.8451 35.9714 54.4664V54.4664Z" fill="#B36640" style="fill:#B36640;fill:color(display-p3 0.7000 0.3985 0.2508);fill-opacity:1;"/>
<path d="M41.3881 54.4664C42.044 54.0877 42.8521 54.0877 43.508 54.4664V54.4664C44.1639 54.8451 44.568 55.545 44.568 56.3023V56.3023C44.568 57.0597 44.1639 57.7596 43.508 58.1383V58.1383C42.8521 58.517 42.044 58.517 41.3881 58.1383V58.1383C40.7321 57.7596 40.3281 57.0597 40.3281 56.3023V56.3023C40.3281 55.545 40.7321 54.8451 41.3881 54.4664V54.4664Z" fill="#B36640" style="fill:#B36640;fill:color(display-p3 0.7000 0.3985 0.2508);fill-opacity:1;"/>
<path d="M46.8048 54.4664C47.4607 54.0877 48.2688 54.0877 48.9248 54.4664V54.4664C49.5807 54.8451 49.9847 55.545 49.9847 56.3023V56.3023C49.9847 57.0597 49.5807 57.7596 48.9248 58.1383V58.1383C48.2688 58.517 47.4607 58.517 46.8048 58.1383V58.1383C46.1489 57.7596 45.7448 57.0597 45.7448 56.3023V56.3023C45.7448 55.545 46.1489 54.8451 46.8048 54.4664V54.4664Z" fill="#B36640" style="fill:#B36640;fill:color(display-p3 0.7000 0.3985 0.2508);fill-opacity:1;"/>
<path d="M52.2214 54.4664C52.8774 54.0877 53.6855 54.0877 54.3414 54.4664V54.4664C54.9973 54.8451 55.4014 55.545 55.4014 56.3023V56.3023C55.4014 57.0597 54.9973 57.7596 54.3414 58.1383V58.1383C53.6855 58.517 52.8774 58.517 52.2214 58.1383V58.1383C51.5655 57.7596 51.1615 57.0597 51.1615 56.3023V56.3023C51.1615 55.545 51.5655 54.8451 52.2214 54.4664V54.4664Z" fill="#B36640" style="fill:#B36640;fill:color(display-p3 0.7000 0.3985 0.2508);fill-opacity:1;"/>
<path d="M57.6379 54.4664C58.2939 54.0877 59.102 54.0877 59.7579 54.4664V54.4664C60.4138 54.8451 60.8179 55.545 60.8179 56.3023V56.3023C60.8179 57.0597 60.4138 57.7596 59.7579 58.1383V58.1383C59.102 58.517 58.2939 58.517 57.6379 58.1383V58.1383C56.982 57.7596 56.578 57.0597 56.578 56.3023V56.3023C56.578 55.545 56.982 54.8451 57.6379 54.4664V54.4664Z" fill="#B36640" style="fill:#B36640;fill:color(display-p3 0.7000 0.3985 0.2508);fill-opacity:1;"/>
<path d="M0.971434 59.362C1.62735 58.9833 2.43547 58.9833 3.09139 59.362V59.362C3.74731 59.7407 4.15137 60.4406 4.15137 61.198V61.198C4.15137 61.9554 3.74731 62.6552 3.09139 63.0339V63.0339C2.43547 63.4126 1.62735 63.4126 0.971434 63.0339V63.0339C0.315516 62.6552 -0.0885453 61.9554 -0.0885453 61.198V61.198C-0.0885453 60.4406 0.315517 59.7407 0.971434 59.362V59.362Z" fill="#B36640" style="fill:#B36640;fill:color(display-p3 0.7000 0.3985 0.2508);fill-opacity:1;"/>
<path d="M6.38818 59.362C7.0441 58.9833 7.85222 58.9833 8.50814 59.362V59.362C9.16406 59.7407 9.56812 60.4406 9.56812 61.198V61.198C9.56812 61.9554 9.16406 62.6552 8.50814 63.0339V63.0339C7.85222 63.4126 7.0441 63.4126 6.38818 63.0339V63.0339C5.73226 62.6552 5.3282 61.9554 5.3282 61.198V61.198C5.3282 60.4406 5.73226 59.7407 6.38818 59.362V59.362Z" fill="#B36640" style="fill:#B36640;fill:color(display-p3 0.7000 0.3985 0.2508);fill-opacity:1;"/>
<path d="M11.8048 59.362C12.4607 58.9833 13.2688 58.9833 13.9248 59.362V59.362C14.5807 59.7407 14.9847 60.4406 14.9847 61.198V61.198C14.9847 61.9554 14.5807 62.6552 13.9248 63.0339V63.0339C13.2688 63.4126 12.4607 63.4126 11.8048 63.0339V63.0339C11.1489 62.6552 10.7448 61.9554 10.7448 61.198V61.198C10.7448 60.4406 11.1489 59.7407 11.8048 59.362V59.362Z" fill="#B36640" style="fill:#B36640;fill:color(display-p3 0.7000 0.3985 0.2508);fill-opacity:1;"/>
<path d="M17.2214 59.362C17.8774 58.9833 18.6855 58.9833 19.3414 59.362V59.362C19.9973 59.7407 20.4014 60.4406 20.4014 61.198V61.198C20.4014 61.9554 19.9973 62.6552 19.3414 63.0339V63.0339C18.6855 63.4126 17.8774 63.4126 17.2214 63.0339V63.0339C16.5655 62.6552 16.1615 61.9554 16.1615 61.198V61.198C16.1615 60.4406 16.5655 59.7407 17.2214 59.362V59.362Z" fill="#B36640" style="fill:#B36640;fill:color(display-p3 0.7000 0.3985 0.2508);fill-opacity:1;"/>
<path d="M22.6382 59.362C23.2941 58.9833 24.1022 58.9833 24.7581 59.362V59.362C25.4141 59.7407 25.8181 60.4406 25.8181 61.198V61.198C25.8181 61.9554 25.4141 62.6552 24.7581 63.0339V63.0339C24.1022 63.4126 23.2941 63.4126 22.6382 63.0339V63.0339C21.9823 62.6552 21.5782 61.9554 21.5782 61.198V61.198C21.5782 60.4406 21.9823 59.7407 22.6382 59.362V59.362Z" fill="#B36640" style="fill:#B36640;fill:color(display-p3 0.7000 0.3985 0.2508);fill-opacity:1;"/>
<path d="M28.0548 59.362C28.7107 58.9833 29.5188 58.9833 30.1748 59.362V59.362C30.8307 59.7407 31.2347 60.4406 31.2347 61.198V61.198C31.2347 61.9554 30.8307 62.6552 30.1748 63.0339V63.0339C29.5188 63.4126 28.7107 63.4126 28.0548 63.0339V63.0339C27.3989 62.6552 26.9948 61.9554 26.9948 61.198V61.198C26.9948 60.4406 27.3989 59.7407 28.0548 59.362V59.362Z" fill="#B36640" style="fill:#B36640;fill:color(display-p3 0.7000 0.3985 0.2508);fill-opacity:1;"/>
<path d="M33.4714 59.362C34.1274 58.9833 34.9355 58.9833 35.5914 59.362V59.362C36.2473 59.7407 36.6514 60.4406 36.6514 61.198V61.198C36.6514 61.9554 36.2473 62.6552 35.5914 63.0339V63.0339C34.9355 63.4126 34.1274 63.4126 33.4714 63.0339V63.0339C32.8155 62.6552 32.4115 61.9554 32.4115 61.198V61.198C32.4115 60.4406 32.8155 59.7407 33.4714 59.362V59.362Z" fill="#B36640" style="fill:#B36640;fill:color(display-p3 0.7000 0.3985 0.2508);fill-opacity:1;"/>
<path d="M38.8882 59.362C39.5441 58.9833 40.3522 58.9833 41.0081 59.362V59.362C41.6641 59.7407 42.0681 60.4406 42.0681 61.198V61.198C42.0681 61.9554 41.6641 62.6552 41.0081 63.0339V63.0339C40.3522 63.4126 39.5441 63.4126 38.8882 63.0339V63.0339C38.2323 62.6552 37.8282 61.9554 37.8282 61.198V61.198C37.8282 60.4406 38.2323 59.7407 38.8882 59.362V59.362Z" fill="#B36640" style="fill:#B36640;fill:color(display-p3 0.7000 0.3985 0.2508);fill-opacity:1;"/>
<path d="M44.3048 59.362C44.9607 58.9833 45.7688 58.9833 46.4248 59.362V59.362C47.0807 59.7407 47.4847 60.4406 47.4847 61.198V61.198C47.4847 61.9554 47.0807 62.6552 46.4248 63.0339V63.0339C45.7688 63.4126 44.9607 63.4126 44.3048 63.0339V63.0339C43.6489 62.6552 43.2448 61.9554 43.2448 61.198V61.198C43.2448 60.4406 43.6489 59.7407 44.3048 59.362V59.362Z" fill="#B36640" style="fill:#B36640;fill:color(display-p3 0.7000 0.3985 0.2508);fill-opacity:1;"/>
<path d="M49.7214 59.362C50.3774 58.9833 51.1855 58.9833 51.8414 59.362V59.362C52.4973 59.7407 52.9014 60.4406 52.9014 61.198V61.198C52.9014 61.9554 52.4973 62.6552 51.8414 63.0339V63.0339C51.1855 63.4126 50.3774 63.4126 49.7214 63.0339V63.0339C49.0655 62.6552 48.6615 61.9554 48.6615 61.198V61.198C48.6615 60.4406 49.0655 59.7407 49.7214 59.362V59.362Z" fill="#B36640" style="fill:#B36640;fill:color(display-p3 0.7000 0.3985 0.2508);fill-opacity:1;"/>
<path d="M55.1382 59.362C55.7941 58.9833 56.6022 58.9833 57.2581 59.362V59.362C57.9141 59.7407 58.3181 60.4406 58.3181 61.198V61.198C58.3181 61.9554 57.9141 62.6552 57.2581 63.0339V63.0339C56.6022 63.4126 55.7941 63.4126 55.1382 63.0339V63.0339C54.4823 62.6552 54.0782 61.9554 54.0782 61.198V61.198C54.0782 60.4406 54.4823 59.7407 55.1382 59.362V59.362Z" fill="#B36640" style="fill:#B36640;fill:color(display-p3 0.7000 0.3985 0.2508);fill-opacity:1;"/>
<path d="M60.5548 59.362C61.2107 58.9833 62.0188 58.9833 62.6748 59.362V59.362C63.3307 59.7407 63.7347 60.4406 63.7347 61.198V61.198C63.7347 61.9554 63.3307 62.6552 62.6748 63.0339V63.0339C62.0188 63.4126 61.2107 63.4126 60.5548 63.0339V63.0339C59.8989 62.6552 59.4948 61.9554 59.4948 61.198V61.198C59.4948 60.4406 59.8989 59.7407 60.5548 59.362V59.362Z" fill="#B36640" style="fill:#B36640;fill:color(display-p3 0.7000 0.3985 0.2508);fill-opacity:1;"/>
<g style="mix-blend-mode:overlay" opacity="0.2">
<rect width="60" height="60" fill="url(#paint0_linear_9_4424)" style=""/>
</g>
</g>
<defs>
<linearGradient id="paint0_linear_9_4424" x1="30" y1="0" x2="30" y2="60" gradientUnits="userSpaceOnUse">
<stop stop-color="white" style="stop-color:white;stop-opacity:1;"/>
<stop offset="1" style="stop-color:black;stop-opacity:1;"/>
</linearGradient>
</defs>
</svg>
