<svg width="60" height="60" viewBox="0 0 60 60" fill="none" xmlns="http://www.w3.org/2000/svg">
<circle cx="30" cy="30" r="30" fill="url(#paint0_linear_9_4120)" style=""/>
<path d="M42.6267 20.8179C42.8722 24.6039 41.9302 27.7651 39.802 30.3014C38.1566 32.2623 36.0203 33.5898 33.393 34.2838C33.266 34.3173 33.099 34.3574 32.8922 34.404C32.5711 34.4765 32.2945 34.679 32.1283 34.963C32.0319 35.1288 31.9539 35.2649 31.8947 35.3717C30.8361 37.283 30.1885 39.1868 29.7139 41.1805C29.6698 41.3655 29.3172 42.7571 28.2931 42.8316C27.2689 42.906 27.3195 41.626 27.3647 41.1805C27.437 40.4685 27.5249 40.2472 27.646 39.7431C28.6273 36.1956 30.2575 33.0885 32.541 30.415C33.892 28.8333 37.7183 25.3845 37.4682 25.0309C37.2182 24.6773 33.393 27.1622 31.4115 29.3229C30.0904 30.7634 29.2298 31.9629 28.8295 32.9215C28.2917 31.7414 27.6039 30.6398 26.7662 29.6168C25.5097 28.0823 23.0513 26.423 22.7719 26.7539C22.4924 27.0847 24.793 29.6524 25.5538 30.6121C26.3177 31.5757 26.6358 32.1176 27.0638 32.9215C27.1931 33.1643 27.3884 33.5817 27.6496 34.1738C27.7161 34.3237 27.6483 34.4993 27.4983 34.5658C27.4433 34.5902 27.3821 34.5973 27.3229 34.5862C26.893 34.5048 26.558 34.4354 26.3177 34.378C24.1806 33.867 22.3752 32.8873 20.9142 31.3744C18.9149 29.304 17.875 26.6331 17.7946 23.3617L17.7902 22.8757C17.8116 22.2199 18.3606 21.7056 19.0165 21.7271L19.4658 21.7479C22.7324 21.9424 25.3654 23.0748 27.3647 25.1451C28.5439 26.3662 29.3894 27.7963 29.901 29.4352C30.3181 27.4416 31.1718 25.6769 32.4604 24.1412C34.5 21.7105 37.2939 20.2531 40.8423 19.7701L41.3655 19.7077C42.0203 19.666 42.585 20.1631 42.6267 20.8179Z" fill="white" style="fill:white;fill-opacity:1;"/>
<path d="M13.7784 18.6661C13.7784 18.116 13.7784 17.566 13.7784 17.0159C13.7784 15.1932 15.256 13.7156 17.0787 13.7156C17.6288 13.7156 18.1788 13.7156 18.7289 13.7156" stroke="white" style="stroke:white;stroke-opacity:1;" stroke-width="3.30028" stroke-linecap="round" stroke-linejoin="round"/>
<path d="M46.7812 18.6661C46.7812 18.116 46.7812 17.566 46.7812 17.0159C46.7812 15.1932 45.3037 13.7156 43.481 13.7156C42.9309 13.7156 42.3809 13.7156 41.8308 13.7156" stroke="white" style="stroke:white;stroke-opacity:1;" stroke-width="3.30028" stroke-linecap="round" stroke-linejoin="round"/>
<path d="M13.7784 41.768C13.7784 42.318 13.7784 42.8681 13.7784 43.4181C13.7784 45.2408 15.256 46.7184 17.0787 46.7184C17.6288 46.7184 18.1788 46.7184 18.7289 46.7184" stroke="white" style="stroke:white;stroke-opacity:1;" stroke-width="3.30028" stroke-linecap="round" stroke-linejoin="round"/>
<path d="M46.7812 41.768C46.7812 42.318 46.7812 42.8681 46.7812 43.4181C46.7812 45.2408 45.3037 46.7184 43.481 46.7184C42.9309 46.7184 42.3809 46.7184 41.8308 46.7184" stroke="white" style="stroke:white;stroke-opacity:1;" stroke-width="3.30028" stroke-linecap="round" stroke-linejoin="round"/>
<defs>
<linearGradient id="paint0_linear_9_4120" x1="23.1614" y1="0" x2="23.1614" y2="60" gradientUnits="userSpaceOnUse">
<stop stop-color="#D37A97" style="stop-color:#D37A97;stop-color:color(display-p3 0.8275 0.4784 0.5922);stop-opacity:1;"/>
<stop offset="1" stop-color="#99445B" style="stop-color:#99445B;stop-color:color(display-p3 0.6000 0.2667 0.3569);stop-opacity:1;"/>
</linearGradient>
</defs>
</svg>
