<svg width="61" height="60" viewBox="0 0 61 60" fill="none" xmlns="http://www.w3.org/2000/svg">
<circle cx="30.875" cy="30" r="30" fill="url(#paint0_linear_9_4423)" style=""/>
<path d="M22.25 43.7822C21.099 43.7822 20.0918 43.547 19.2285 43.0767C18.3652 42.6118 17.6929 41.9588 17.2114 41.1177C16.7355 40.271 16.4976 39.286 16.4976 38.1626C16.4976 37.6092 16.5584 37.0641 16.6802 36.5273C16.8019 35.9906 16.9513 35.4842 17.1284 35.0083C17.3055 34.5324 17.4743 34.1118 17.6348 33.7466C17.9336 33.077 18.2878 32.3936 18.6973 31.6963C19.1123 30.9935 19.5495 30.2935 20.0088 29.5962C20.4681 28.8989 20.9108 28.2183 21.3369 27.5542C21.4642 27.366 21.6053 27.2222 21.7603 27.1226C21.9207 27.0229 22.084 26.9731 22.25 26.9731C22.4215 26.9731 22.5848 27.0229 22.7397 27.1226C22.8947 27.2222 23.0358 27.366 23.1631 27.5542C23.5947 28.2183 24.0374 28.8989 24.4912 29.5962C24.9505 30.2935 25.3877 30.9935 25.8027 31.6963C26.2178 32.3936 26.5719 33.077 26.8652 33.7466C27.0257 34.1118 27.1945 34.5324 27.3716 35.0083C27.5487 35.4842 27.6981 35.9906 27.8198 36.5273C27.9416 37.0641 28.0024 37.6092 28.0024 38.1626C28.0024 39.286 27.7617 40.271 27.2803 41.1177C26.8044 41.9588 26.1348 42.6118 25.2715 43.0767C24.4082 43.547 23.401 43.7822 22.25 43.7822Z" fill="white" style="fill:white;fill-opacity:1;"/>
<path d="M38.2498 43.7822C37.0987 43.7822 36.0916 43.547 35.2283 43.0767C34.365 42.6118 33.6926 41.9588 33.2112 41.1177C32.7353 40.271 32.4973 39.286 32.4973 38.1626C32.4973 37.6092 32.5582 37.0641 32.6799 36.5273C32.8017 35.9906 32.9511 35.4842 33.1282 35.0083C33.3053 34.5324 33.474 34.1118 33.6345 33.7466C33.9333 33.077 34.2875 32.3936 34.697 31.6963C35.1121 30.9935 35.5492 30.2935 36.0085 29.5962C36.4679 28.8989 36.9106 28.2183 37.3367 27.5542C37.4639 27.366 37.6051 27.2222 37.76 27.1226C37.9205 27.0229 38.0837 26.9731 38.2498 26.9731C38.4213 26.9731 38.5846 27.0229 38.7395 27.1226C38.8944 27.2222 39.0356 27.366 39.1628 27.5542C39.5945 28.2183 40.0372 28.8989 40.491 29.5962C40.9503 30.2935 41.3875 30.9935 41.8025 31.6963C42.2175 32.3936 42.5717 33.077 42.865 33.7466C43.0255 34.1118 43.1943 34.5324 43.3713 35.0083C43.5484 35.4842 43.6978 35.9906 43.8196 36.5273C43.9413 37.0641 44.0022 37.6092 44.0022 38.1626C44.0022 39.286 43.7615 40.271 43.28 41.1177C42.8041 41.9588 42.1345 42.6118 41.2712 43.0767C40.408 43.547 39.4008 43.7822 38.2498 43.7822Z" fill="white" style="fill:white;fill-opacity:1;"/>
<path d="M30.25 26.7821C29.099 26.7821 28.0918 26.5469 27.2285 26.0765C26.3652 25.6117 25.6929 24.9587 25.2114 24.1176C24.7355 23.2709 24.4976 22.2858 24.4976 21.1625C24.4976 20.6091 24.5584 20.064 24.6802 19.5272C24.8019 18.9904 24.9513 18.4841 25.1284 18.0082C25.3055 17.5323 25.4743 17.1117 25.6348 16.7465C25.9336 16.0769 26.2878 15.3934 26.6973 14.6962C27.1123 13.9934 27.5495 13.2933 28.0088 12.5961C28.4681 11.8988 28.9108 11.2181 29.3369 10.5541C29.4642 10.3659 29.6053 10.222 29.7603 10.1224C29.9207 10.0228 30.084 9.97302 30.25 9.97302C30.4215 9.97302 30.5848 10.0228 30.7397 10.1224C30.8947 10.222 31.0358 10.3659 31.1631 10.5541C31.5947 11.2181 32.0374 11.8988 32.4912 12.5961C32.9505 13.2933 33.3877 13.9934 33.8027 14.6962C34.2178 15.3934 34.5719 16.0769 34.8652 16.7465C35.0257 17.1117 35.1945 17.5323 35.3716 18.0082C35.5487 18.4841 35.6981 18.9904 35.8198 19.5272C35.9416 20.064 36.0024 20.6091 36.0024 21.1625C36.0024 22.2858 35.7617 23.2709 35.2803 24.1176C34.8044 24.9587 34.1348 25.6117 33.2715 26.0765C32.4082 26.5469 31.401 26.7821 30.25 26.7821Z" fill="white" style="fill:white;fill-opacity:1;"/>
<defs>
<linearGradient id="paint0_linear_9_4423" x1="24.0364" y1="0" x2="24.0364" y2="60" gradientUnits="userSpaceOnUse">
<stop stop-color="#007AFF" style="stop-color:#007AFF;stop-color:color(display-p3 0.0000 0.4784 1.0000);stop-opacity:1;"/>
<stop offset="1" stop-color="#0034FF" style="stop-color:#0034FF;stop-color:color(display-p3 0.0000 0.2039 1.0000);stop-opacity:1;"/>
</linearGradient>
</defs>
</svg>
