<svg fill="none" height="24" viewBox="0 0 24 24" width="24" xmlns="http://www.w3.org/2000/svg"><path d="m11.6653 0c2.0434.0083474 3.4843.0868838 4.5342.205638l.3996.049576.4181.065029c3.0157.54886 5.4618 2.890587 5.871 5.908627.0534.53601.0797 1.16862.0853 1.89405.0049.63482-.0057 1.28519-.0279 2.03128l-.0118.3706-.0453 2.0424c-.2374 3.7059-2.4934 5.8807-5.789 6.5066l-.0152.0035.028.2997-.0011 1.572c-.0401.3635-.049.4443-.1378.661l-.0983.2289c-.1946.308-.2378.3764-.4199.538l-.1969.169c-.4257.3052-.8813.5172-1.4419.7129l-.103.0357-.5081.163c-.2644.0822-.5316.1544-.8106.2185-2.3691.5337-4.84136.4047-7.15605-.378-2.5721-.8929-4.81954-2.9887-5.429881-5.4637-.267947-1.1016-.456748-2.2206-.565676-3.3561-.063075-.6842-.099833-1.2677-.134004-2.1301l-.10426296-3.12573c-.02597224-1.24977.05109636-2.355.27474096-3.38478.654961-2.94571 3.256963-5.111924 6.320593-5.55991l.37892-.061425.43962-.060439.43966-.044547c.70136-.0611912 1.60152-.098978 2.78044-.10915458zm-.0081 1.9999h-.655c-2.1749.00844-3.14919.10712-3.66272.1829l-.67453.11105c-2.09261.38751-3.96628 1.87846-4.43306 3.97783-.23253 1.07082-.25735 2.258-.21415 3.347l.06166 1.87262c.03051.9357.06922 1.8702.15525 2.8034.09912 1.0331.27204 2.058.51746 3.067.45955 1.8634 2.31983 3.4142 4.14242 4.0469 1.95136.6598 4.04987.7693 6.06057.3163.2212-.0509.44-.11.6563-.1772.488-.1536 1.0606-.3255 1.4816-.6273.0058-.0042.0105-.0096.0138-.016l.0039-.0098.0016-1.5176-.0047-.0192-.0126-.0152-.018-.0085c-.0065-.0014-.0133-.0014-.0199.0001l-.4845.107c-1.1338.2331-2.2894.3496-3.4483.3475-2.1166 0-2.79638-.9225-3.02326-1.4109l-.04477-.1044c-.1411-.385-.23071-.7865-.26653-1.1944l.00371-.02.01244-.0161.01849-.0089c.00677-.0015.01379-.0013.02051.0004l.47648.1064c1.11503.2317 2.25183.3484 3.39203.3481.3134 0 .6259 0 .9394-.0081 1.3106-.0364 2.692-.1028 3.9815-.3518l.2765-.0575c1.9651-.4241 3.791-1.6545 3.9818-4.6322l.0265-1.456c.0111-.5767.1314-3.02644-.021-4.55616-.2923-2.14892-2.1857-3.84241-4.4301-4.17056l-.4482-.0583c-.5806-.06637-1.6628-.15886-3.4581-.18902zm2.9781 3.18098c.9448 0 1.7067.32905 2.2895.9699.5631.64177.8446 1.50836.8446 2.5998l-.0018 5.33862h-2.1388v-5.18137c0-1.09082-.4595-1.64713-1.3943-1.64713-1.0275 0-1.5422.65813-1.5422 1.958v2.8361h-2.1259v-2.8361c0-1.29987-.5156-1.958-1.5432-1.958-.92923 0-1.39339.55631-1.39431 1.64713v5.18137h-2.13692v-5.33862c0-1.09083.28156-1.95741.84466-2.5998.58087-.64085 1.34282-.9699 2.28859-.9699 1.09464 0 1.92188.41631 2.47328 1.24808l.5322.88356.5331-.88356c.5514-.83177 1.3787-1.24808 2.4715-1.24808z" fill="#000"/><path d="m11.31.99939c3.2046.0123 4.6144.17342 5.156.24701 1.5069.21952 2.7312.83401 3.6632 1.71144.9424.88715 1.5844 2.04591 1.7597 3.3346.1354 1.3525.0741 3.33008.0424 4.29526-.0137.6276-.0332 1.7895-.0408 1.9156-.1064 1.6597-.6579 2.8536-1.4286 3.7174-.9342 1.0471-2.2167 1.6177-3.5445 1.8699-.1796.035-.3592.0667-.5387.0955l-.3605.0513.1091 3.052c-.49.5905-1.2489.8984-1.9454 1.1261l-.2067.0661c-.3112.097-.5522.1619-.8003.2189-2.19.4934-4.47548.3741-6.60836-.3471-2.13321-.7406-4.25229-2.5905-4.78615-4.7553-.25669-1.0554-.43754-2.1273-.54157-3.2116-.10602-1.1501-.14207-2.3021-.17755-3.4558-.01303-.424-.02607-.8482-.04279-1.27233-.046467-1.17135-.01387-2.44752.2372-3.60368.28213-1.26887.98582-2.35734 1.9425-3.18197.98112-.8457 2.2287-1.41068 3.53603-1.60399.60706-.10441 1.55117-.269348 4.57579-.26934zm-2.00277 17.32301.039.0339c.0688.0521.14906.1026.24252.1487.35306.1744.84945.2838 1.53725.2838 1.1592.0021 2.3148-.1219 3.4461-.3697l.1771-.0417-.5083.0369c-.3521.022-.7015.0377-1.047.05l-.5151.0162c-.3221.0084-.6433.0085-.9652.0085-.6907.0002-1.3802-.0402-2.06486-.1206z" stroke="#000" stroke-width="2"/><path d="m17.7676 14.0892h-2.1388v-5.18134c0-1.09082-.4595-1.64713-1.3943-1.64713-1.0276 0-1.5422.65813-1.5422 1.958v2.83617h-2.1259v-2.83617c0-1.29987-.5157-1.958-1.54323-1.958-.92923 0-1.39338.55631-1.3943 1.64713v5.18134h-2.13693v-5.3386c0-1.09082.28157-1.95741.84467-2.59979.58087-.64085 1.34282-.9699 2.28859-.9699 1.09464 0 1.9218.41631 2.4733 1.24808l.5322.88356.5331-.88356c.5514-.83177 1.3786-1.24808 2.4715-1.24808.9448 0 1.7067.32905 2.2894.9699.5632.64176.8447 1.50835.8447 2.59979z" fill="#000"/></svg>