<svg fill="none" height="24" viewBox="0 0 24 24" width="24" xmlns="http://www.w3.org/2000/svg"><path d="m19.7588 3.71997c2.0366 0 3.1356 1.01962 3.2089 2.97096l.004.21263v10.74104c0 2.0152-1.017 3.1042-2.7796 3.1794l-.1989.0042h-15.75199c-2.03664 0-3.13559-1.0196-3.20896-2.971l-.00393-.2126v-10.74104c0-2.02462 1.01702-3.10487 2.77962-3.17944l.1989-.00415zm-5.0879 9.66683-.5371.5273c-.7031.6934-1.3965.9863-2.1192.9863-.6713 0-1.3017-.2461-1.9512-.8212l-.17766-.1651-.52734-.5273-5.5957 5.5468c.09765.0196.20399.0348.31611.0427l.17217.0062h15.49802c.1237 0 .2387-.0087.348-.0261l.1598-.0325zm-11.81641-6.34652v10.42852l5.3125-5.2539zm18.29101.0293-5.2832 5.14532 5.2832 5.2344zm-1.3965-1.51367h-15.49802c-.11068 0-.21702.00868-.31612.02315l-.14287.02568 7.10941 6.98126c.4101.3906.7519.5762 1.1132.5762.3212 0 .627-.1389.979-.451l.1343-.1252 7.0996-6.9715c-.0976-.02604-.1996-.0434-.3088-.05208z" fill="#000"/></svg>