<svg fill="none" height="24" viewBox="0 0 24 24" width="24" xmlns="http://www.w3.org/2000/svg"><path d="m14.9428 2.00076c.6556.00174 1.3273.00613 1.4947.00727l.118.00085c.1513.00115.5051.00394.9145.00795v5.12792c-.3672-.00398-.7854-.00684-1.0064-.00826-.2318-.00148-.6806-.00415-1.06-.00472-.2701.01286-.4946-.0026-.6142.11969-.1183.12092-.0687.33871-.0687.57836-.001.37806-.0031.78246-.0053 1.13898l2.5217.0566-.6654 4.9137h-1.8506l.0122.9376-.0147 7.1163h-5.59231v-8.0539h-3.12629v-4.93906h3.12618l-.00015-1.42809c.04324-1.74419.51727-2.96875 1.15237-3.8152.8907-1.18725 2.124-1.67972 3.2203-1.74662.0767-.00468.2858-.00824.5672-.0094z" style="fill-rule:evenodd;clip-rule:evenodd;stroke-width:2;stroke-linecap:round;stroke-linejoin:round;stroke:#000"/><path d="m13.7081 12.9391h1.9899l.398-2.93911h-2.3879s.0126-1.53726.0126-2.17294c0-1.17411.3547-1.62287 1.082-1.69093.1105-.01034 1.6673.00034 1.6673.00034v-3.12824s-2.6067-.01853-2.9104 0c-1.5077.092-3.3464 1.23534-3.4333 3.58477-.0136.36756 0 1.00034 0 1.00539v2.40161h-3.1263v2.93911h3.1263v8.0539h3.5944l.0126-6.1109zm2.0251 1.9997-.0125 6.0583c-.0023 1.103-.8971 1.9959-2 1.9959h-3.5944c-1.10458 0-2.00001-.8954-2.00001-2v-6.0539h-1.12629c-1.10457 0-2-.8954-2-2v-2.93911c0-1.10457.89543-2 2-2h1.12629v-.40161c-.00036.00578-.00036.00578-.00283-.15327-.00228-.16337-.00352-.32702-.00315-.48248.00039-.16768.00262-.31571.00735-.44359.11758-3.17769 2.52554-5.33719 5.31014-5.5071.1924-.01175.6864-.013614 1.5684-.01106.2497.00072.5152.00184.7871.00325.2995.00155.5449.00311.6909.00414 1.099.00782 1.9858.90093 1.9858 1.99995v3.12824c0 1.00456-.7404 1.83522-1.7038 1.97824.863.3065 1.4425 1.18724 1.3117 2.1537l-.398 2.9391c-.1327.9801-.9613 1.7142-1.9467 1.7313z" fill="#000"/></svg>