<svg fill="none" height="24" viewBox="0 0 24 24" width="24" xmlns="http://www.w3.org/2000/svg"><path d="m16.5334 1.10609c1.1326.05169 1.9176.22135 2.6557.50802 1.4685.56743 2.6294 1.72826 3.1963 3.19524.2871.73943.4569 1.52493.5086 2.65731.0502 1.10186.0628 1.59284.0654 3.43754v2.1913c-.0026 1.8449-.0152 2.3362-.0654 3.4376-.0517 1.1323-.2215 1.9178-.508 2.6556-.5674 1.4686-1.7283 2.6295-3.1952 3.1962-.7403.2876-1.5254.4574-2.6583.5091-1.102.0502-1.5928.0628-3.4376.0654h-2.1916c-1.84497-.0026-2.33595-.0152-3.43748-.0654-1.13231-.0517-1.91782-.2215-2.65573-.508-1.46854-.5675-2.6294-1.7283-3.19625-3.1953-.28726-.7397-.45693-1.5246-.50861-2.6569-.04762-1.0365-.06092-1.5211-.06421-3.1912l-.00037-2.4387c.00263-1.8453.01524-2.33625.06544-3.43731.05169-1.13259.22136-1.91757.50803-2.65571.56745-1.46851 1.72831-2.62934 3.19531-3.19618.73968-.28726 1.52467-.45692 2.65735-.50861 1.10198-.0502 1.59272-.06281 3.43752-.06544h2.1916c1.8453.00264 2.3365.01525 3.4375.06544zm-4.5334 1.85395-.2974.00002-1.0166.00094c-1.63372.00326-2.10597.01637-3.13177.0631-.92124.04203-1.50142.16744-2.05126.38096-.96372.37238-1.72552 1.13416-2.09849 2.09938-.21294.54829-.33834 1.12846-.38038 2.04963-.04673 1.02492-.05984 1.49732-.0631 3.13143l-.00094 1.0169c-.00002.096-.00003.1951-.00003.2974l.00003.3009.00091 1.027c.00201 1.0489.00792 1.6175.02389 2.152l.00747.2283c.00813.2288.01827.4631.03089.738.04204.9212.16745 1.5013.38098 2.0512.37237.9636 1.13418 1.7254 2.09942 2.0984.54806.2128 1.12877.3383 2.04968.3804 1.02535.0467 1.4978.0598 3.1317.0631l1.0167.0009h.2975.2974l1.0166-.0009c1.6337-.0033 2.106-.0164 3.1318-.0631.9214-.0421 1.5016-.1675 2.0521-.3814.9638-.3724 1.7256-1.1342 2.0985-2.0994.2128-.548.3383-1.1287.3804-2.0496.0467-1.0253.0598-1.4979.0631-3.1318v-2.6279c-.0033-1.63364-.0164-2.10611-.0631-3.13177-.0421-.92096-.1676-1.50165-.381-2.05122-.3724-.96369-1.1342-1.72547-2.0994-2.09844-.5483-.21293-1.1285-.33834-2.0497-.38037-1.0249-.04672-1.4975-.05984-3.1316-.06309l-1.0168-.00094c-.0961-.00003-.1952-.00003-.2975-.00003zm0 3.04c3.3137 0 6 2.68629 6 5.99996 0 3.3137-2.6863 6-6 6-3.31367 0-5.99997-2.6863-5.99997-6 0-3.31367 2.6863-5.99996 5.99997-5.99996zm0 2c-2.2091 0-3.99997 1.79086-3.99997 3.99996 0 2.2092 1.79087 4 3.99997 4 2.2092 0 4-1.7908 4-4 0-2.2091-1.7908-3.99996-4-3.99996zm5.9666-3.23c.6903 0 1.25.55964 1.25 1.25 0 .69035-.5597 1.25-1.25 1.25-.6904 0-1.25-.55965-1.25-1.25 0-.69036.5596-1.25 1.25-1.25z" fill="#000"/></svg>