<svg fill="none" height="24" viewBox="0 0 24 24" width="24" xmlns="http://www.w3.org/2000/svg"><path clip-rule="evenodd" d="m12.3865 3-.005 12.2514c-.0526 1.3719-1.208 2.473-2.6244 2.473-.4401 0-.8546-.1076-1.2195-.2953-.8369-.4304-1.4097-1.2877-1.4097-2.2744 0-1.1477.77391-2.1222 1.83851-2.4511.24969-.0771.51536-.1187.79079-.1187.21601 0 .425.0278.6254.0772.0507.0125.1009.0264.1505.0416l.0001-3.1214c-.0496-.00658-.0994-.01268-.1494-.01825-.2058-.02292-.41444-.03665-.6264-.03665-.27336 0-.54232.01871-.80563.0549-.14122.01941-.28081.04384-.41857.07311-2.58861.54989-4.5332 2.80659-4.5332 5.49869 0 1.903.9724 3.5871 2.4562 4.6059l.0016.0016c.9351.6417 2.0727 1.0198 3.2994 1.0198 3.1747 0 5.7574-2.5241 5.7574-5.6267v-6.2124c.6057.42487 1.2786.76357 2 .99765.116.03765.2333.07255.3518.10475.6368.1729 1.3076.2653 2 .2653l-.0001-3.0565c-.8732 0-1.6866-.2535-2.3688-.688l-.001-.0012c-.98-.6244-1.6874-1.6238-1.9081-2.7885-.0477-.2518-.0739-.5108-.0739-.7758zm5.1669.40344c.1132.5973.4811 1.13219 1.0178 1.47413.0091.00583.0182.01174.0273.01771.3653.22602.798.35822 1.2678.35822 1.1046 0 2 .89543 2 2l.0001 3.0564c0 .5305-.2107 1.0392-.5858 1.4143-.375.3751-.8838.5858-1.4142.5858-.8106 0-1.5988-.1007-2.3518-.2901v3.1348c0 4.2502-3.5217 7.6267-7.7574 7.6267-1.64316 0-3.17326-.5076-4.43104-1.3707-.01292-.0089-.02573-.0179-.03843-.0271-1.97038-1.3695-3.28773-3.6403-3.28773-6.2295 0-4.2501 3.52164-7.6267 7.7574-7.6267.2171 0 .4266.01024.6272.02727l.0019-4.55549c.0005-1.10425.8957-1.99918 2-1.99918h3.128c1.1046 0 2 .89543 2 2 0 .13261.0131.26685.0389.40344zm-7.1717 11.29456c-.1456-.0111-.291-.0381-.43343-.0817-.0753-.023-.13773-.0314-.19107-.0314-.38859 0-.6293.3003-.6293.5698 0 .1866.10753.3843.32439.4958.09226.0475.19437.0739.30481.0739.3636 0 .6017-.268.6244-.5267z" fill="#000" fill-rule="evenodd"/></svg>